<svg width="185" height="185" viewBox="0 0 185 185" fill="none" xmlns="http://www.w3.org/2000/svg">
<circle cx="92.5" cy="92.5" r="88.5" fill="#2B2C2D" stroke="#F1F8F8" stroke-width="8"/>
<path d="M37.7739 76.2916V113.755H33.2445V82.2029L25.4139 85.6831V81.4096L37.083 76.2916H37.7739ZM54.2795 109.789H54.6377C56.9408 109.789 58.7919 109.405 60.1908 108.637C61.5897 107.87 62.6389 106.838 63.3383 105.541C64.0549 104.244 64.5325 102.786 64.7714 101.165C65.0273 99.5273 65.1552 97.8469 65.1552 96.1238V90.4173C65.1552 88.7283 64.9932 87.2271 64.669 85.9134C64.3619 84.5998 63.944 83.4994 63.4151 82.6123C62.9033 81.7252 62.3147 81.0513 61.6494 80.5907C61.0011 80.1301 60.3358 79.8998 59.6534 79.8998C58.7833 79.8998 58.0156 80.1216 57.3503 80.5651C56.6849 80.9916 56.122 81.5972 55.6613 82.382C55.2178 83.1668 54.8766 84.088 54.6377 85.1457C54.3989 86.2035 54.2795 87.355 54.2795 88.6004C54.2795 89.7093 54.3818 90.7841 54.5866 91.8247C54.7913 92.8654 55.1069 93.8037 55.5334 94.6396C55.9769 95.4756 56.5229 96.1409 57.1712 96.6356C57.8365 97.1133 58.6213 97.3522 59.5254 97.3522C60.2761 97.3522 61.0011 97.1474 61.7006 96.738C62.4171 96.3115 63.0654 95.74 63.6454 95.0235C64.2255 94.2899 64.7031 93.4625 65.0785 92.5412C65.4538 91.62 65.6756 90.6561 65.7438 89.6496H67.8678C67.8678 91.0656 67.6375 92.4645 67.1768 93.8463C66.7333 95.2111 66.0935 96.4565 65.2576 97.5825C64.4387 98.7084 63.4748 99.6126 62.3659 100.295C61.2741 100.96 60.0714 101.293 58.7577 101.293C57.1712 101.293 55.8149 100.935 54.6889 100.218C53.563 99.5017 52.6417 98.5464 51.9252 97.3522C51.2257 96.158 50.7054 94.8273 50.3642 93.3601C50.023 91.8759 49.8524 90.3746 49.8524 88.8563C49.8524 87.082 50.0571 85.4187 50.4666 83.8662C50.876 82.3138 51.4816 80.949 52.2835 79.7718C53.1023 78.5776 54.1259 77.6479 55.3543 76.9825C56.5826 76.3172 58.0156 75.9845 59.6534 75.9845C61.4788 75.9845 63.0313 76.411 64.3108 77.264C65.5903 78.117 66.6224 79.26 67.4072 80.6931C68.1919 82.1261 68.7634 83.7383 69.1217 85.5296C69.4799 87.3209 69.6591 89.1634 69.6591 91.057V92.7716C69.6591 94.6993 69.5652 96.6612 69.3776 98.6573C69.207 100.636 68.8402 102.53 68.2772 104.338C67.7313 106.147 66.9124 107.767 65.8206 109.2C64.7287 110.616 63.2701 111.742 61.4447 112.578C59.6363 113.397 57.3673 113.807 54.6377 113.807H54.3051L54.2795 109.789ZM84.8851 95.9703V99.86H74.3165V95.9703H84.8851ZM94.5582 96.0215L90.95 95.0491L92.5366 76.4963H108.761V80.8722H96.3495L95.4794 91.0058C96.0595 90.6135 96.7589 90.2467 97.5778 89.9055C98.3967 89.5643 99.352 89.3937 100.444 89.3937C101.911 89.3937 103.216 89.6922 104.359 90.2893C105.519 90.8694 106.5 91.7053 107.302 92.7971C108.104 93.889 108.718 95.2026 109.144 96.738C109.571 98.2734 109.784 99.9879 109.784 101.882C109.784 103.673 109.571 105.319 109.144 106.82C108.735 108.322 108.104 109.635 107.251 110.761C106.415 111.87 105.357 112.732 104.078 113.346C102.815 113.96 101.34 114.267 99.6506 114.267C98.3881 114.267 97.1939 114.062 96.068 113.653C94.942 113.227 93.927 112.587 93.0228 111.734C92.1356 110.864 91.4106 109.789 90.8476 108.509C90.2846 107.213 89.9349 105.695 89.7984 103.954H94.072C94.2426 105.353 94.5667 106.53 95.0444 107.486C95.5391 108.441 96.1703 109.166 96.938 109.661C97.7228 110.139 98.627 110.377 99.6506 110.377C100.521 110.377 101.305 110.181 102.005 109.789C102.704 109.397 103.293 108.834 103.771 108.1C104.248 107.366 104.615 106.479 104.871 105.439C105.127 104.398 105.255 103.229 105.255 101.933C105.255 100.756 105.127 99.6638 104.871 98.6573C104.615 97.6507 104.231 96.7721 103.719 96.0215C103.208 95.2708 102.585 94.6908 101.851 94.2814C101.135 93.8549 100.299 93.6416 99.3435 93.6416C98.064 93.6416 97.1172 93.8549 96.503 94.2814C95.9059 94.7079 95.2576 95.2879 94.5582 96.0215ZM119.073 109.789H119.432C121.735 109.789 123.586 109.405 124.985 108.637C126.384 107.87 127.433 106.838 128.132 105.541C128.849 104.244 129.326 102.786 129.565 101.165C129.821 99.5273 129.949 97.8469 129.949 96.1238V90.4173C129.949 88.7283 129.787 87.2271 129.463 85.9134C129.156 84.5998 128.738 83.4994 128.209 82.6123C127.697 81.7252 127.109 81.0513 126.443 80.5907C125.795 80.1301 125.13 79.8998 124.447 79.8998C123.577 79.8998 122.81 80.1216 122.144 80.5651C121.479 80.9916 120.916 81.5972 120.455 82.382C120.012 83.1668 119.671 84.088 119.432 85.1457C119.193 86.2035 119.073 87.355 119.073 88.6004C119.073 89.7093 119.176 90.7841 119.38 91.8247C119.585 92.8654 119.901 93.8037 120.327 94.6396C120.771 95.4756 121.317 96.1409 121.965 96.6356C122.63 97.1133 123.415 97.3522 124.319 97.3522C125.07 97.3522 125.795 97.1474 126.495 96.738C127.211 96.3115 127.859 95.74 128.439 95.0235C129.019 94.2899 129.497 93.4625 129.872 92.5412C130.248 91.62 130.469 90.6561 130.538 89.6496H132.662C132.662 91.0656 132.431 92.4645 131.971 93.8463C131.527 95.2111 130.887 96.4565 130.052 97.5825C129.233 98.7084 128.269 99.6126 127.16 100.295C126.068 100.96 124.865 101.293 123.552 101.293C121.965 101.293 120.609 100.935 119.483 100.218C118.357 99.5017 117.436 98.5464 116.719 97.3522C116.02 96.158 115.499 94.8273 115.158 93.3601C114.817 91.8759 114.646 90.3746 114.646 88.8563C114.646 87.082 114.851 85.4187 115.26 83.8662C115.67 82.3138 116.276 80.949 117.077 79.7718C117.896 78.5776 118.92 77.6479 120.148 76.9825C121.377 76.3172 122.81 75.9845 124.447 75.9845C126.273 75.9845 127.825 76.411 129.105 77.264C130.384 78.117 131.416 79.26 132.201 80.6931C132.986 82.1261 133.557 83.7383 133.916 85.5296C134.274 87.3209 134.453 89.1634 134.453 91.057V92.7716C134.453 94.6993 134.359 96.6612 134.172 98.6573C134.001 100.636 133.634 102.53 133.071 104.338C132.525 106.147 131.706 107.767 130.615 109.2C129.523 110.616 128.064 111.742 126.239 112.578C124.43 113.397 122.161 113.807 119.432 113.807H119.099L119.073 109.789ZM155.923 110.275C156.742 110.275 157.544 110.198 158.328 110.045C159.13 109.891 159.889 109.678 160.606 109.405L161.118 113.499C160.299 113.738 159.446 113.926 158.559 114.062C157.672 114.199 156.776 114.267 155.872 114.267C154.166 114.267 152.605 113.96 151.189 113.346C149.773 112.715 148.545 111.785 147.504 110.557C146.463 109.311 145.661 107.767 145.098 105.925C144.535 104.065 144.254 101.899 144.254 99.425V90.9035C144.254 88.4127 144.535 86.2376 145.098 84.378C145.661 82.5185 146.455 80.966 147.478 79.7206C148.502 78.4753 149.722 77.5455 151.138 76.9313C152.571 76.3001 154.14 75.9845 155.846 75.9845C156.767 75.9845 157.655 76.0613 158.508 76.2148C159.361 76.3513 160.231 76.539 161.118 76.7778L160.606 80.8978C159.889 80.6248 159.13 80.4116 158.328 80.258C157.544 80.0874 156.733 80.0021 155.897 80.0021C154.823 80.0021 153.859 80.2239 153.006 80.6675C152.153 81.111 151.428 81.7764 150.831 82.6635C150.234 83.5506 149.773 84.6766 149.449 86.0414C149.125 87.4062 148.963 89.0098 148.963 90.8523V99.425C148.963 101.267 149.125 102.871 149.449 104.236C149.773 105.601 150.242 106.727 150.856 107.614C151.47 108.501 152.204 109.166 153.057 109.61C153.91 110.053 154.865 110.275 155.923 110.275ZM156.921 90.0334V93.2322H140.543V90.0334H156.921ZM156.921 96.7124V99.8856H140.543V96.7124H156.921Z" fill="#F1F8F8"/>
<path d="M47.9298 41.0231L43.9451 54.309H42.0628L46.7584 39.7316H47.9398L47.9298 41.0231ZM51.1536 54.309L47.1689 41.0231L47.1489 39.7316H48.3403L53.0359 54.309H51.1536ZM51.1536 48.9125V50.4944H44.1253V48.9125H51.1536ZM56.7003 38.9306V54.309H54.9382V38.9306H56.7003ZM61.4059 38.9306V54.309H59.6438V38.9306H61.4059ZM71.0774 39.7316V54.309H69.2352V39.7316H71.0774ZM75.813 45.7888V54.309H74.0409V43.4761H75.7129L75.813 45.7888ZM75.3825 48.482L74.6616 48.452C74.655 47.7111 74.7384 47.027 74.9119 46.3995C75.0921 45.7655 75.3458 45.2148 75.6728 44.7476C76.0066 44.2804 76.4037 43.9199 76.8643 43.6663C77.3248 43.406 77.8354 43.2758 78.3961 43.2758C78.8366 43.2758 79.2371 43.3492 79.5975 43.4961C79.9579 43.6363 80.265 43.8632 80.5186 44.1769C80.7722 44.4906 80.9658 44.8978 81.0993 45.3983C81.2395 45.8923 81.3096 46.4963 81.3096 47.2105V54.309H79.5374V47.1905C79.5374 46.6231 79.474 46.1693 79.3472 45.8289C79.2271 45.4818 79.0402 45.2315 78.7865 45.078C78.5396 44.9178 78.2259 44.8377 77.8454 44.8377C77.4983 44.8377 77.1746 44.9345 76.8743 45.128C76.5739 45.3216 76.3103 45.5886 76.0833 45.929C75.8631 46.2694 75.6895 46.6599 75.5627 47.1004C75.4426 47.5342 75.3825 47.9948 75.3825 48.482ZM87.7272 52.9974C88.081 52.9974 88.4013 52.9273 88.6883 52.7871C88.982 52.6403 89.2223 52.4134 89.4092 52.1063C89.5961 51.7926 89.7029 51.3855 89.7296 50.8849H91.3916C91.3649 51.6057 91.1813 52.2398 90.8409 52.7871C90.5072 53.3278 90.0666 53.7516 89.5193 54.0587C88.9787 54.359 88.3813 54.5092 87.7272 54.5092C87.0264 54.5092 86.4156 54.3957 85.895 54.1688C85.3811 53.9419 84.9539 53.6148 84.6135 53.1876C84.2798 52.7538 84.0295 52.2298 83.8626 51.6158C83.6957 50.995 83.6123 50.2908 83.6123 49.5032V48.2818C83.6123 47.4942 83.6957 46.7933 83.8626 46.1793C84.0295 45.5585 84.2798 45.0346 84.6135 44.6074C84.9539 44.1736 85.3811 43.8432 85.895 43.6162C86.4156 43.3893 87.0264 43.2758 87.7272 43.2758C88.4614 43.2758 89.0955 43.4327 89.6295 43.7464C90.1701 44.0534 90.5906 44.5006 90.891 45.088C91.198 45.6687 91.3649 46.3728 91.3916 47.2005H89.7296C89.7029 46.6665 89.6061 46.2227 89.4392 45.8689C89.2724 45.5085 89.0454 45.2415 88.7584 45.068C88.4714 44.8877 88.1277 44.7976 87.7272 44.7976C87.26 44.7976 86.8728 44.8811 86.5658 45.0479C86.2655 45.2081 86.0285 45.4417 85.855 45.7488C85.6814 46.0558 85.5579 46.4229 85.4845 46.8501C85.4178 47.2773 85.3844 47.7545 85.3844 48.2818V49.5032C85.3844 50.0305 85.4178 50.5111 85.4845 50.945C85.5579 51.3721 85.6781 51.7392 85.845 52.0463C86.0185 52.3533 86.2588 52.5902 86.5658 52.7571C86.8728 52.9173 87.26 52.9974 87.7272 52.9974ZM95.3463 38.9306V54.309H93.5842V38.9306H95.3463ZM103.626 51.806V43.4761H105.398V54.309H103.716L103.626 51.806ZM103.957 49.5233L104.657 49.5032C104.657 50.2241 104.594 50.8916 104.467 51.5056C104.347 52.113 104.147 52.6403 103.866 53.0875C103.593 53.5347 103.229 53.8851 102.775 54.1388C102.321 54.3857 101.764 54.5092 101.103 54.5092C100.656 54.5092 100.249 54.4324 99.8817 54.2789C99.5212 54.1254 99.2075 53.8885 98.9405 53.5681C98.6802 53.2477 98.4767 52.8305 98.3298 52.3166C98.1897 51.8026 98.1196 51.1852 98.1196 50.4644V43.4761H99.8817V50.4844C99.8817 50.9717 99.9251 51.3755 100.012 51.6958C100.099 52.0096 100.215 52.2599 100.362 52.4467C100.509 52.627 100.673 52.7538 100.853 52.8272C101.033 52.9006 101.217 52.9373 101.403 52.9373C102.031 52.9373 102.531 52.7871 102.905 52.4868C103.279 52.1798 103.546 51.7693 103.706 51.2553C103.873 50.7347 103.957 50.1573 103.957 49.5233ZM113.318 51.5357C113.318 51.262 113.251 51.0217 113.117 50.8148C112.984 50.6079 112.764 50.4076 112.457 50.2141C112.156 50.0205 111.749 49.8136 111.235 49.5933C110.735 49.3864 110.284 49.1829 109.884 48.9826C109.49 48.7757 109.156 48.5521 108.882 48.3118C108.609 48.0715 108.398 47.7945 108.252 47.4808C108.111 47.1604 108.041 46.7833 108.041 46.3495C108.041 45.9156 108.121 45.5152 108.282 45.1481C108.449 44.7743 108.682 44.4472 108.983 44.1669C109.283 43.8865 109.643 43.6696 110.064 43.5161C110.484 43.3559 110.955 43.2758 111.475 43.2758C112.216 43.2758 112.847 43.4193 113.368 43.7063C113.888 43.9933 114.285 44.3871 114.559 44.8877C114.839 45.3817 114.98 45.939 114.98 46.5597H113.218C113.218 46.2594 113.151 45.9757 113.017 45.7087C112.884 45.4417 112.687 45.2248 112.427 45.0579C112.166 44.8844 111.849 44.7976 111.475 44.7976C111.082 44.7976 110.761 44.8677 110.514 45.0079C110.267 45.1481 110.087 45.3316 109.974 45.5585C109.867 45.7788 109.813 46.0224 109.813 46.2894C109.813 46.4896 109.84 46.6632 109.894 46.81C109.954 46.9502 110.054 47.0837 110.194 47.2105C110.334 47.3307 110.524 47.4575 110.765 47.591C111.012 47.7178 111.325 47.8646 111.706 48.0315C112.44 48.3185 113.057 48.6088 113.558 48.9025C114.059 49.1962 114.439 49.5399 114.699 49.9338C114.96 50.3276 115.09 50.8148 115.09 51.3955C115.09 51.8694 115.003 52.2999 114.829 52.687C114.663 53.0675 114.422 53.3945 114.109 53.6682C113.795 53.9419 113.418 54.1521 112.977 54.2989C112.543 54.4391 112.056 54.5092 111.516 54.5092C110.701 54.5092 110.01 54.349 109.443 54.0286C108.882 53.7016 108.455 53.2777 108.162 52.7571C107.875 52.2298 107.731 51.6658 107.731 51.0651H109.503C109.523 51.5724 109.637 51.9662 109.844 52.2465C110.057 52.5268 110.314 52.7204 110.614 52.8272C110.915 52.934 111.215 52.9874 111.516 52.9874C111.909 52.9874 112.24 52.9307 112.507 52.8172C112.774 52.697 112.974 52.5268 113.107 52.3066C113.248 52.0863 113.318 51.8293 113.318 51.5357ZM119.315 43.4761V54.309H117.553V43.4761H119.315ZM117.453 40.6026C117.453 40.3023 117.536 40.0486 117.703 39.8417C117.87 39.6348 118.12 39.5314 118.454 39.5314C118.788 39.5314 119.038 39.6348 119.205 39.8417C119.378 40.0486 119.465 40.3023 119.465 40.6026C119.465 40.8896 119.378 41.1366 119.205 41.3435C119.038 41.5438 118.788 41.6439 118.454 41.6439C118.12 41.6439 117.87 41.5438 117.703 41.3435C117.536 41.1366 117.453 40.8896 117.453 40.6026ZM124.921 52.637L127.244 43.4761H129.046L125.833 54.309H124.661L124.921 52.637ZM123.049 43.4761L125.472 52.687L125.662 54.309H124.501L121.247 43.4761H123.049ZM134.623 54.5092C133.976 54.5092 133.392 54.4124 132.871 54.2189C132.35 54.0253 131.906 53.7316 131.539 53.3378C131.172 52.9373 130.892 52.4334 130.698 51.826C130.505 51.2186 130.408 50.5011 130.408 49.6734V48.452C130.408 47.4975 130.518 46.6899 130.738 46.0291C130.965 45.3683 131.269 44.8377 131.649 44.4372C132.03 44.0301 132.46 43.7364 132.941 43.5562C133.422 43.3693 133.916 43.2758 134.423 43.2758C135.104 43.2758 135.684 43.386 136.165 43.6062C136.645 43.8265 137.036 44.1535 137.336 44.5874C137.637 45.0212 137.857 45.5552 137.997 46.1893C138.144 46.8234 138.217 47.5543 138.217 48.3819V49.4131H131.449V47.9013H136.445V47.651C136.419 47.0904 136.342 46.5964 136.215 46.1693C136.095 45.7421 135.895 45.4084 135.614 45.1681C135.334 44.9211 134.937 44.7976 134.423 44.7976C134.096 44.7976 133.792 44.8544 133.512 44.9678C133.238 45.0746 133.001 45.2649 132.801 45.5385C132.607 45.8055 132.454 46.1759 132.34 46.6498C132.234 47.1237 132.18 47.7245 132.18 48.452V49.6734C132.18 50.2541 132.234 50.7547 132.34 51.1752C132.454 51.5891 132.617 51.9328 132.831 52.2065C133.051 52.4734 133.318 52.6737 133.632 52.8072C133.952 52.934 134.316 52.9974 134.723 52.9974C135.317 52.9974 135.808 52.8839 136.195 52.657C136.582 52.4234 136.919 52.1264 137.206 51.7659L138.137 52.8773C137.944 53.1509 137.69 53.4146 137.376 53.6682C137.069 53.9152 136.689 54.1187 136.235 54.2789C135.788 54.4324 135.25 54.5092 134.623 54.5092ZM140.41 53.3278C140.41 53.0141 140.507 52.7504 140.7 52.5368C140.901 52.3166 141.188 52.2065 141.561 52.2065C141.935 52.2065 142.219 52.3166 142.412 52.5368C142.613 52.7504 142.713 53.0141 142.713 53.3278C142.713 53.6348 142.613 53.8951 142.412 54.1087C142.219 54.3223 141.935 54.4291 141.561 54.4291C141.188 54.4291 140.901 54.3223 140.7 54.1087C140.507 53.8951 140.41 53.6348 140.41 53.3278ZM140.4 44.4873C140.4 44.1736 140.497 43.9099 140.69 43.6963C140.89 43.4761 141.178 43.3659 141.551 43.3659C141.925 43.3659 142.209 43.4761 142.402 43.6963C142.603 43.9099 142.703 44.1736 142.703 44.4873C142.703 44.7943 142.603 45.0546 142.402 45.2682C142.209 45.4818 141.925 45.5886 141.551 45.5886C141.178 45.5886 140.89 45.4818 140.69 45.2682C140.497 45.0546 140.4 44.7943 140.4 44.4873Z" fill="#F1F8F8"/>
<path d="M91.4571 134.073V144.297H90.0542V132.424H91.3303L91.4571 134.073ZM96.2524 136.324V137.124C96.2524 137.8 96.189 138.392 96.0622 138.9C95.9406 139.402 95.7583 139.822 95.5153 140.16C95.2775 140.493 94.9842 140.744 94.6355 140.913C94.2867 141.077 93.8878 141.159 93.4386 141.159C92.9895 141.159 92.5985 141.074 92.2656 140.905C91.9379 140.731 91.6605 140.48 91.4333 140.152C91.2114 139.824 91.0344 139.431 90.9023 138.971C90.7754 138.506 90.6883 137.985 90.6407 137.409V136.189C90.6883 135.581 90.7754 135.037 90.9023 134.556C91.0291 134.07 91.2035 133.658 91.4254 133.32C91.6526 132.976 91.93 132.715 92.2576 132.535C92.5905 132.355 92.9789 132.265 93.4228 132.265C93.8825 132.265 94.2867 132.345 94.6355 132.503C94.9895 132.662 95.2854 132.907 95.5232 133.24C95.7663 133.568 95.9486 133.988 96.0701 134.501C96.1916 135.008 96.2524 135.616 96.2524 136.324ZM94.8495 137.124V136.324C94.8495 135.848 94.8125 135.433 94.7385 135.079C94.6698 134.725 94.5588 134.432 94.4056 134.199C94.2524 133.967 94.0595 133.793 93.827 133.676C93.5945 133.56 93.3144 133.502 92.9868 133.502C92.7068 133.502 92.4584 133.56 92.2418 133.676C92.0304 133.793 91.8481 133.951 91.6949 134.152C91.5416 134.347 91.4148 134.572 91.3144 134.826C91.214 135.074 91.14 135.333 91.0925 135.602V138.004C91.1823 138.342 91.3012 138.662 91.4492 138.963C91.5971 139.259 91.7953 139.499 92.0436 139.684C92.2973 139.869 92.6169 139.962 93.0027 139.962C93.325 139.962 93.6024 139.904 93.8349 139.787C94.0674 139.671 94.2576 139.497 94.4056 139.264C94.5588 139.026 94.6698 138.73 94.7385 138.376C94.8125 138.017 94.8495 137.6 94.8495 137.124ZM99.4625 133.771V141H98.0595V132.424H99.4149L99.4625 133.771ZM101.595 132.376L101.603 133.74C101.486 133.713 101.381 133.697 101.285 133.692C101.196 133.682 101.09 133.676 100.968 133.676C100.704 133.676 100.472 133.729 100.271 133.835C100.075 133.94 99.9063 134.088 99.7637 134.279C99.621 134.469 99.5074 134.696 99.4228 134.96C99.3383 135.219 99.2802 135.505 99.2485 135.816L98.8839 136.054C98.8839 135.536 98.9235 135.05 99.0027 134.596C99.0873 134.141 99.2167 133.74 99.3911 133.391C99.5655 133.037 99.7874 132.762 100.057 132.567C100.332 132.366 100.659 132.265 101.04 132.265C101.124 132.265 101.227 132.279 101.349 132.305C101.476 132.326 101.558 132.35 101.595 132.376ZM102.554 137.124V136.308C102.554 135.642 102.638 135.058 102.807 134.556C102.976 134.049 103.212 133.626 103.513 133.288C103.814 132.95 104.165 132.696 104.567 132.527C104.968 132.353 105.399 132.265 105.859 132.265C106.329 132.265 106.765 132.353 107.167 132.527C107.568 132.696 107.92 132.95 108.221 133.288C108.527 133.626 108.765 134.049 108.934 134.556C109.103 135.058 109.188 135.642 109.188 136.308V137.124C109.188 137.79 109.103 138.376 108.934 138.884C108.765 139.386 108.53 139.806 108.229 140.144C107.928 140.482 107.576 140.736 107.175 140.905C106.773 141.074 106.34 141.159 105.875 141.159C105.41 141.159 104.976 141.074 104.575 140.905C104.173 140.736 103.819 140.482 103.513 140.144C103.212 139.806 102.976 139.386 102.807 138.884C102.638 138.376 102.554 137.79 102.554 137.124ZM103.957 136.308V137.124C103.957 137.594 104.004 138.007 104.099 138.361C104.194 138.715 104.329 139.011 104.503 139.248C104.678 139.486 104.881 139.666 105.114 139.787C105.346 139.904 105.6 139.962 105.875 139.962C106.192 139.962 106.469 139.904 106.707 139.787C106.95 139.666 107.151 139.486 107.309 139.248C107.468 139.011 107.587 138.715 107.666 138.361C107.745 138.007 107.785 137.594 107.785 137.124V136.308C107.785 135.837 107.737 135.428 107.642 135.079C107.547 134.725 107.412 134.429 107.238 134.191C107.064 133.948 106.858 133.769 106.62 133.653C106.387 133.531 106.134 133.47 105.859 133.47C105.589 133.47 105.338 133.531 105.106 133.653C104.873 133.769 104.67 133.948 104.496 134.191C104.326 134.429 104.194 134.725 104.099 135.079C104.004 135.428 103.957 135.837 103.957 136.308ZM115.37 129.46H116.781L119.801 138.868L122.813 129.46H124.224L120.348 141H119.238L115.37 129.46ZM114.91 129.46H116.147L116.361 136.498V141H114.91V129.46ZM123.439 129.46H124.675V141H123.225V136.498L123.439 129.46ZM126.697 137.124V136.308C126.697 135.642 126.781 135.058 126.95 134.556C127.119 134.049 127.354 133.626 127.656 133.288C127.957 132.95 128.308 132.696 128.71 132.527C129.111 132.353 129.542 132.265 130.002 132.265C130.472 132.265 130.908 132.353 131.31 132.527C131.711 132.696 132.063 132.95 132.364 133.288C132.67 133.626 132.908 134.049 133.077 134.556C133.246 135.058 133.331 135.642 133.331 136.308V137.124C133.331 137.79 133.246 138.376 133.077 138.884C132.908 139.386 132.673 139.806 132.372 140.144C132.07 140.482 131.719 140.736 131.317 140.905C130.916 141.074 130.483 141.159 130.018 141.159C129.553 141.159 129.119 141.074 128.718 140.905C128.316 140.736 127.962 140.482 127.656 140.144C127.354 139.806 127.119 139.386 126.95 138.884C126.781 138.376 126.697 137.79 126.697 137.124ZM128.099 136.308V137.124C128.099 137.594 128.147 138.007 128.242 138.361C128.337 138.715 128.472 139.011 128.646 139.248C128.821 139.486 129.024 139.666 129.257 139.787C129.489 139.904 129.743 139.962 130.018 139.962C130.335 139.962 130.612 139.904 130.85 139.787C131.093 139.666 131.294 139.486 131.452 139.248C131.611 139.011 131.73 138.715 131.809 138.361C131.888 138.007 131.928 137.594 131.928 137.124V136.308C131.928 135.837 131.88 135.428 131.785 135.079C131.69 134.725 131.555 134.429 131.381 134.191C131.207 133.948 131 133.769 130.763 133.653C130.53 133.531 130.277 133.47 130.002 133.47C129.732 133.47 129.481 133.531 129.249 133.653C129.016 133.769 128.813 133.948 128.638 134.191C128.469 134.429 128.337 134.725 128.242 135.079C128.147 135.428 128.099 135.837 128.099 136.308ZM136.541 134.255V141H135.138V132.424H136.462L136.541 134.255ZM136.2 136.387L135.629 136.363C135.624 135.777 135.69 135.235 135.827 134.738C135.97 134.236 136.171 133.8 136.43 133.431C136.694 133.061 137.008 132.775 137.373 132.575C137.738 132.368 138.142 132.265 138.586 132.265C138.934 132.265 139.252 132.324 139.537 132.44C139.822 132.551 140.065 132.73 140.266 132.979C140.467 133.227 140.62 133.549 140.726 133.946C140.837 134.337 140.892 134.815 140.892 135.38V141H139.489V135.365C139.489 134.915 139.439 134.556 139.339 134.287C139.244 134.012 139.096 133.814 138.895 133.692C138.699 133.565 138.451 133.502 138.15 133.502C137.875 133.502 137.619 133.579 137.381 133.732C137.143 133.885 136.934 134.096 136.755 134.366C136.58 134.635 136.443 134.944 136.343 135.293C136.248 135.637 136.2 136.001 136.2 136.387ZM147.201 139.534V134.881C147.201 134.543 147.149 134.271 147.043 134.065C146.942 133.859 146.789 133.708 146.583 133.613C146.382 133.518 146.129 133.47 145.822 133.47C145.526 133.47 145.27 133.531 145.053 133.653C144.842 133.774 144.678 133.935 144.562 134.136C144.451 134.337 144.396 134.559 144.396 134.802H142.993C142.993 134.495 143.059 134.191 143.191 133.89C143.328 133.589 143.524 133.317 143.777 133.074C144.031 132.826 144.335 132.63 144.689 132.487C145.048 132.339 145.45 132.265 145.894 132.265C146.422 132.265 146.89 132.353 147.297 132.527C147.703 132.696 148.023 132.973 148.256 133.359C148.488 133.745 148.604 134.258 148.604 134.897V139.129C148.604 139.415 148.625 139.719 148.668 140.041C148.715 140.363 148.781 140.641 148.866 140.873V141H147.415C147.347 140.831 147.294 140.606 147.257 140.326C147.22 140.041 147.201 139.777 147.201 139.534ZM147.423 135.8L147.439 136.831H146.464C146.131 136.831 145.828 136.868 145.553 136.942C145.283 137.016 145.051 137.124 144.855 137.267C144.66 137.404 144.509 137.576 144.403 137.782C144.303 137.988 144.253 138.223 144.253 138.487C144.253 138.831 144.3 139.106 144.396 139.312C144.491 139.513 144.633 139.658 144.824 139.748C145.014 139.838 145.254 139.882 145.545 139.882C145.899 139.882 146.211 139.801 146.48 139.637C146.75 139.473 146.958 139.275 147.106 139.042C147.26 138.81 147.331 138.593 147.32 138.392L147.629 139.05C147.608 139.256 147.54 139.481 147.423 139.724C147.312 139.962 147.156 140.192 146.956 140.413C146.755 140.63 146.517 140.81 146.242 140.952C145.973 141.09 145.669 141.159 145.331 141.159C144.834 141.159 144.398 141.063 144.023 140.873C143.653 140.683 143.365 140.403 143.159 140.033C142.953 139.663 142.85 139.206 142.85 138.662C142.85 138.25 142.921 137.869 143.064 137.52C143.207 137.172 143.418 136.87 143.698 136.617C143.978 136.358 144.33 136.157 144.752 136.014C145.18 135.872 145.674 135.8 146.234 135.8H147.423ZM153.915 132.424V133.549H149.912V132.424H153.915ZM151.22 130.339H152.623V138.876C152.623 139.166 152.657 139.386 152.726 139.534C152.8 139.682 152.892 139.779 153.003 139.827C153.114 139.874 153.233 139.898 153.36 139.898C153.455 139.898 153.561 139.888 153.677 139.867C153.793 139.84 153.873 139.819 153.915 139.803L153.907 141C153.812 141.037 153.685 141.071 153.526 141.103C153.368 141.14 153.167 141.159 152.924 141.159C152.623 141.159 152.343 141.087 152.084 140.945C151.825 140.802 151.616 140.564 151.458 140.231C151.299 139.893 151.22 139.439 151.22 138.868V130.339Z" fill="#F1F8F8"/>
</svg>
