<svg width="141" height="66" viewBox="0 0 141 66" fill="none" xmlns="http://www.w3.org/2000/svg">
<g clip-path="url(#clip0_176_34)">
<path d="M8.14091 3.36926V62H0.369111V3.36926H8.14091ZM37.714 39.0068H22.0496V32.6846H37.714C40.7475 32.6846 43.2039 32.2014 45.0831 31.235C46.9623 30.2685 48.3314 28.9262 49.1905 27.2081C50.0764 25.49 50.5193 23.5303 50.5193 21.329C50.5193 19.3155 50.0764 17.4229 49.1905 15.6511C48.3314 13.8793 46.9623 12.4565 45.0831 11.3827C43.2039 10.282 40.7475 9.73166 37.714 9.73166H23.8617V62H16.0899V3.36926H37.714C42.1435 3.36926 45.8885 4.13436 48.9489 5.66456C52.0093 7.19475 54.3314 9.31556 55.9153 12.027C57.4992 14.7115 58.2911 17.7853 58.2911 21.2484C58.2911 25.0068 57.4992 28.2148 55.9153 30.8726C54.3314 33.5303 52.0093 35.5571 48.9489 36.9531C45.8885 38.3222 42.1435 39.0068 37.714 39.0068Z" fill="currentColor"/>
<rect x="29.8" y="45.1" width="8.05" height="16.1" fill="currentColor"/>
<path d="M46.3797 45.075V61H45.1109V45.075H46.3797ZM49.6325 51.6922V61H48.4184V49.1656H49.5778L49.6325 51.6922ZM49.3591 54.35L48.8231 54.0328C48.8523 53.3328 48.9653 52.6766 49.1622 52.0641C49.3664 51.4516 49.6434 50.912 49.9934 50.4453C50.3434 49.9714 50.7554 49.6031 51.2294 49.3406C51.7033 49.0781 52.2283 48.9469 52.8044 48.9469C53.2929 48.9469 53.7341 49.0271 54.1278 49.1875C54.5216 49.3479 54.8533 49.5995 55.1231 49.9422C55.4002 50.2849 55.6117 50.7333 55.7575 51.2875C55.9033 51.8417 55.9763 52.5089 55.9763 53.2891V61H54.7622V53.2781C54.7622 52.4688 54.671 51.8344 54.4888 51.375C54.3065 50.9156 54.044 50.5911 53.7013 50.4016C53.3658 50.2047 52.9611 50.1063 52.4872 50.1063C51.9841 50.1063 51.5393 50.2411 51.1528 50.5109C50.7736 50.7807 50.4492 51.1307 50.1794 51.5609C49.9169 51.9911 49.7164 52.4542 49.5778 52.95C49.4393 53.4385 49.3664 53.9052 49.3591 54.35ZM63.4728 58.0906C63.4728 57.7625 63.3853 57.4635 63.2103 57.1938C63.0426 56.924 62.7619 56.6578 62.3681 56.3953C61.9817 56.1328 61.453 55.8484 60.7822 55.5422C60.2499 55.3016 59.7723 55.0682 59.3494 54.8422C58.9265 54.6161 58.5692 54.3755 58.2775 54.1203C57.9931 53.8651 57.7707 53.5771 57.6103 53.2563C57.4572 52.9281 57.3806 52.5417 57.3806 52.0969C57.3806 51.6521 57.4645 51.2401 57.6322 50.8609C57.7999 50.4818 58.0369 50.15 58.3431 49.8656C58.6567 49.574 59.0285 49.3479 59.4587 49.1875C59.8962 49.0271 60.3848 48.9469 60.9244 48.9469C61.6973 48.9469 62.3572 49.0964 62.9041 49.3953C63.4509 49.687 63.8739 50.0917 64.1728 50.6094C64.4718 51.1271 64.6212 51.725 64.6212 52.4031H63.3962C63.3962 51.9948 63.2978 51.6156 63.1009 51.2656C62.9114 50.9156 62.6343 50.6313 62.2697 50.4125C61.9051 50.1938 61.4567 50.0844 60.9244 50.0844C60.3775 50.0844 59.9291 50.1828 59.5791 50.3797C59.2364 50.5693 58.9848 50.8135 58.8244 51.1125C58.6712 51.4115 58.5947 51.725 58.5947 52.0531C58.5947 52.2938 58.6311 52.5089 58.7041 52.6984C58.7843 52.8807 58.9155 53.0594 59.0978 53.2344C59.2874 53.4021 59.5499 53.5807 59.8853 53.7703C60.228 53.9526 60.6509 54.1714 61.1541 54.4266C61.8832 54.7401 62.5103 55.0536 63.0353 55.3672C63.5603 55.6734 63.965 56.0344 64.2494 56.45C64.5337 56.8583 64.6759 57.376 64.6759 58.0031C64.6759 58.4917 64.5884 58.9365 64.4134 59.3375C64.2384 59.7313 63.9905 60.0703 63.6697 60.3547C63.3489 60.6318 62.9587 60.8469 62.4994 61C62.0473 61.1458 61.5442 61.2187 60.99 61.2187C60.1442 61.2187 59.4259 61.0583 58.8353 60.7375C58.252 60.4167 57.8072 59.9938 57.5009 59.4688C57.202 58.9438 57.0525 58.375 57.0525 57.7625H58.2666C58.2957 58.3823 58.4489 58.8599 58.7259 59.1953C59.0103 59.5307 59.3567 59.7604 59.765 59.8844C60.1733 60.0083 60.5817 60.0703 60.99 60.0703C61.5223 60.0703 61.9744 59.9828 62.3462 59.8078C62.7181 59.6328 62.9989 59.3958 63.1884 59.0969C63.378 58.7906 63.4728 58.4552 63.4728 58.0906ZM69.7225 49.1656V50.2594H64.6694V49.1656H69.7225ZM66.485 46.1359H67.71V58.1125C67.71 58.6594 67.7683 59.0714 67.885 59.3484C68.0017 59.6255 68.1548 59.8115 68.3444 59.9063C68.534 59.9938 68.7381 60.0375 68.9569 60.0375C69.1246 60.0375 69.2814 60.0266 69.4272 60.0047C69.5803 59.9828 69.7152 59.9536 69.8319 59.9172L69.8756 61.0328C69.7371 61.0911 69.5584 61.1349 69.3397 61.1641C69.1282 61.2005 68.9022 61.2187 68.6616 61.2187C68.2532 61.2187 67.885 61.124 67.5569 60.9344C67.2287 60.7375 66.9662 60.413 66.7694 59.9609C66.5798 59.5089 66.485 58.8891 66.485 58.1016V46.1359ZM76.7378 58.8781V52.4359C76.7378 51.8818 76.643 51.4333 76.4534 51.0906C76.2639 50.7406 75.9868 50.4854 75.6222 50.325C75.2576 50.1646 74.8092 50.0844 74.2769 50.0844C73.7737 50.0844 73.3253 50.1865 72.9316 50.3906C72.5451 50.5875 72.2425 50.8646 72.0237 51.2219C71.8123 51.5719 71.7066 51.9766 71.7066 52.4359L70.4925 52.425C70.4925 51.9729 70.5836 51.5391 70.7659 51.1234C70.9482 50.7005 71.2071 50.3286 71.5425 50.0078C71.8779 49.6797 72.279 49.4208 72.7456 49.2313C73.2196 49.0417 73.7446 48.9469 74.3206 48.9469C75.0279 48.9469 75.655 49.0599 76.2019 49.2859C76.7487 49.512 77.1753 49.8839 77.4816 50.4016C77.7951 50.9193 77.9519 51.6047 77.9519 52.4578V58.5063C77.9519 58.9219 77.9774 59.3484 78.0284 59.7859C78.0868 60.2234 78.1633 60.5807 78.2581 60.8578V61H76.9675C76.8873 60.7448 76.829 60.4203 76.7925 60.0266C76.756 59.6255 76.7378 59.2427 76.7378 58.8781ZM76.9894 54.0875L77.0222 55.1266H74.9222C74.3534 55.1266 73.854 55.1885 73.4237 55.3125C72.9935 55.4365 72.6326 55.6151 72.3409 55.8484C72.0566 56.0818 71.8415 56.3589 71.6956 56.6797C71.5498 57.0005 71.4769 57.3651 71.4769 57.7734C71.4769 58.2984 71.5607 58.7286 71.7284 59.0641C71.8961 59.3922 72.1404 59.6365 72.4612 59.7969C72.7894 59.95 73.1795 60.0266 73.6316 60.0266C74.2295 60.0266 74.7545 59.9099 75.2066 59.6766C75.6659 59.4359 76.0415 59.1188 76.3331 58.725C76.6248 58.324 76.8144 57.901 76.9019 57.4563L77.23 58.2C77.1571 58.5354 77.0222 58.8781 76.8253 59.2281C76.6284 59.5781 76.3732 59.9063 76.0597 60.2125C75.7461 60.5115 75.3743 60.7557 74.9441 60.9453C74.5139 61.1349 74.029 61.2297 73.4894 61.2297C72.8404 61.2297 72.2717 61.1057 71.7831 60.8578C71.3019 60.6099 70.9264 60.2344 70.6566 59.7313C70.3941 59.2281 70.2628 58.6083 70.2628 57.8719C70.2628 57.325 70.354 56.8219 70.5362 56.3625C70.7258 55.9031 71.0066 55.5057 71.3784 55.1703C71.7503 54.8276 72.217 54.5615 72.7784 54.3719C73.3399 54.1823 73.9925 54.0875 74.7362 54.0875H76.9894ZM80.8219 51.6922V61H79.6078V49.1656H80.7672L80.8219 51.6922ZM80.5484 54.35L80.0125 54.0328C80.0417 53.3328 80.1547 52.6766 80.3516 52.0641C80.5557 51.4516 80.8328 50.912 81.1828 50.4453C81.5328 49.9714 81.9448 49.6031 82.4188 49.3406C82.8927 49.0781 83.4177 48.9469 83.9938 48.9469C84.4823 48.9469 84.9234 49.0271 85.3172 49.1875C85.7109 49.3479 86.0427 49.5995 86.3125 49.9422C86.5896 50.2849 86.801 50.7333 86.9469 51.2875C87.0927 51.8417 87.1656 52.5089 87.1656 53.2891V61H85.9516V53.2781C85.9516 52.4688 85.8604 51.8344 85.6781 51.375C85.4958 50.9156 85.2333 50.5911 84.8906 50.4016C84.5552 50.2047 84.1505 50.1063 83.6766 50.1063C83.1734 50.1063 82.7286 50.2411 82.3422 50.5109C81.963 50.7807 81.6385 51.1307 81.3688 51.5609C81.1063 51.9911 80.9057 52.4542 80.7672 52.95C80.6286 53.4385 80.5557 53.9052 80.5484 54.35ZM92.5731 49.1656V50.2594H87.52V49.1656H92.5731ZM89.3356 46.1359H90.5606V58.1125C90.5606 58.6594 90.619 59.0714 90.7356 59.3484C90.8523 59.6255 91.0054 59.8115 91.195 59.9063C91.3846 59.9938 91.5887 60.0375 91.8075 60.0375C91.9752 60.0375 92.132 60.0266 92.2778 60.0047C92.4309 59.9828 92.5658 59.9536 92.6825 59.9172L92.7262 61.0328C92.5877 61.0911 92.4091 61.1349 92.1903 61.1641C91.9789 61.2005 91.7528 61.2187 91.5122 61.2187C91.1039 61.2187 90.7356 61.124 90.4075 60.9344C90.0794 60.7375 89.8169 60.413 89.62 59.9609C89.4304 59.5089 89.3356 58.8891 89.3356 58.1016V46.1359ZM98.1491 51.4406V65.55H96.935V49.1656H98.0616L98.1491 51.4406ZM105.018 54.5359V55.6406C105.018 56.5958 104.934 57.4234 104.766 58.1234C104.599 58.8234 104.351 59.4031 104.022 59.8625C103.694 60.3219 103.293 60.6646 102.819 60.8906C102.353 61.1167 101.82 61.2297 101.222 61.2297C100.632 61.2297 100.111 61.1276 99.6584 60.9234C99.2064 60.7193 98.8199 60.4313 98.4991 60.0594C98.1855 59.6802 97.934 59.2391 97.7444 58.7359C97.5548 58.2255 97.4235 57.6641 97.3506 57.0516V53.4094C97.4308 52.7385 97.5694 52.1297 97.7662 51.5828C97.9631 51.0359 98.2183 50.5656 98.5319 50.1719C98.8454 49.7781 99.2209 49.4755 99.6584 49.2641C100.103 49.0526 100.614 48.9469 101.19 48.9469C101.802 48.9469 102.345 49.0526 102.819 49.2641C103.293 49.4682 103.694 49.7964 104.022 50.2484C104.351 50.6932 104.599 51.2729 104.766 51.9875C104.934 52.6948 105.018 53.5443 105.018 54.5359ZM103.804 55.6406V54.5359C103.804 53.7703 103.745 53.1141 103.629 52.5672C103.512 52.013 103.333 51.5536 103.093 51.1891C102.859 50.8245 102.557 50.5547 102.185 50.3797C101.82 50.1974 101.39 50.1063 100.894 50.1063C100.391 50.1063 99.9574 50.201 99.5928 50.3906C99.2355 50.5729 98.9366 50.8172 98.6959 51.1234C98.4626 51.4297 98.273 51.7651 98.1272 52.1297C97.9886 52.487 97.8866 52.8406 97.8209 53.1906V57.3359C97.9449 57.8172 98.1308 58.2693 98.3787 58.6922C98.6267 59.1151 98.9584 59.4542 99.3741 59.7094C99.7897 59.9573 100.304 60.0813 100.916 60.0813C101.412 60.0813 101.839 59.9938 102.196 59.8188C102.561 59.6365 102.859 59.363 103.093 58.9984C103.333 58.6266 103.512 58.1635 103.629 57.6094C103.745 57.0552 103.804 56.399 103.804 55.6406ZM112.175 58.8781V52.4359C112.175 51.8818 112.081 51.4333 111.891 51.0906C111.701 50.7406 111.424 50.4854 111.06 50.325C110.695 50.1646 110.247 50.0844 109.714 50.0844C109.211 50.0844 108.763 50.1865 108.369 50.3906C107.983 50.5875 107.68 50.8646 107.461 51.2219C107.25 51.5719 107.144 51.9766 107.144 52.4359L105.93 52.425C105.93 51.9729 106.021 51.5391 106.203 51.1234C106.386 50.7005 106.645 50.3286 106.98 50.0078C107.315 49.6797 107.716 49.4208 108.183 49.2313C108.657 49.0417 109.182 48.9469 109.758 48.9469C110.465 48.9469 111.092 49.0599 111.639 49.2859C112.186 49.512 112.613 49.8839 112.919 50.4016C113.233 50.9193 113.389 51.6047 113.389 52.4578V58.5063C113.389 58.9219 113.415 59.3484 113.466 59.7859C113.524 60.2234 113.601 60.5807 113.696 60.8578V61H112.405C112.325 60.7448 112.266 60.4203 112.23 60.0266C112.194 59.6255 112.175 59.2427 112.175 58.8781ZM112.427 54.0875L112.46 55.1266H110.36C109.791 55.1266 109.291 55.1885 108.861 55.3125C108.431 55.4365 108.07 55.6151 107.778 55.8484C107.494 56.0818 107.279 56.3589 107.133 56.6797C106.987 57.0005 106.914 57.3651 106.914 57.7734C106.914 58.2984 106.998 58.7286 107.166 59.0641C107.334 59.3922 107.578 59.6365 107.899 59.7969C108.227 59.95 108.617 60.0266 109.069 60.0266C109.667 60.0266 110.192 59.9099 110.644 59.6766C111.103 59.4359 111.479 59.1188 111.771 58.725C112.062 58.324 112.252 57.901 112.339 57.4563L112.667 58.2C112.595 58.5354 112.46 58.8781 112.263 59.2281C112.066 59.5781 111.811 59.9063 111.497 60.2125C111.184 60.5115 110.812 60.7557 110.382 60.9453C109.951 61.1349 109.466 61.2297 108.927 61.2297C108.278 61.2297 107.709 61.1057 107.221 60.8578C106.739 60.6099 106.364 60.2344 106.094 59.7313C105.832 59.2281 105.7 58.6083 105.7 57.8719C105.7 57.325 105.791 56.8219 105.974 56.3625C106.163 55.9031 106.444 55.5057 106.816 55.1703C107.188 54.8276 107.654 54.5615 108.216 54.3719C108.777 54.1823 109.43 54.0875 110.174 54.0875H112.427ZM121.564 49.1656H122.691V61.2953C122.691 62.3161 122.527 63.151 122.198 63.8C121.878 64.449 121.422 64.9266 120.831 65.2328C120.241 65.5464 119.541 65.7031 118.731 65.7031C118.345 65.7031 117.933 65.6411 117.495 65.5172C117.058 65.3932 116.642 65.2073 116.248 64.9594C115.855 64.7187 115.523 64.4271 115.253 64.0844L115.822 63.2094C116.23 63.6687 116.671 64.0115 117.145 64.2375C117.627 64.4635 118.126 64.5766 118.644 64.5766C119.249 64.5766 119.763 64.4708 120.186 64.2594C120.609 64.0479 120.93 63.7016 121.148 63.2203C121.367 62.7464 121.477 62.1193 121.477 61.3391V51.7688L121.564 49.1656ZM114.608 55.6406V54.5359C114.608 53.5443 114.695 52.6948 114.87 51.9875C115.045 51.2729 115.301 50.6932 115.636 50.2484C115.971 49.8036 116.376 49.4755 116.85 49.2641C117.331 49.0526 117.871 48.9469 118.469 48.9469C119.045 48.9469 119.548 49.0526 119.978 49.2641C120.416 49.4755 120.788 49.7781 121.094 50.1719C121.4 50.5656 121.648 51.0359 121.838 51.5828C122.027 52.1297 122.166 52.7385 122.253 53.4094V56.9422C122.18 57.562 122.049 58.138 121.859 58.6703C121.677 59.1953 121.429 59.6474 121.116 60.0266C120.809 60.4057 120.434 60.701 119.989 60.9125C119.544 61.124 119.03 61.2297 118.447 61.2297C117.856 61.2297 117.324 61.1167 116.85 60.8906C116.376 60.6646 115.971 60.3219 115.636 59.8625C115.301 59.4031 115.045 58.8234 114.87 58.1234C114.695 57.4234 114.608 56.5958 114.608 55.6406ZM115.833 54.5359V55.6406C115.833 56.399 115.888 57.0552 115.997 57.6094C116.114 58.1635 116.289 58.6229 116.522 58.9875C116.755 59.3448 117.051 59.6146 117.408 59.7969C117.772 59.9719 118.203 60.0594 118.698 60.0594C119.318 60.0594 119.832 59.9318 120.241 59.6766C120.656 59.4141 120.984 59.0714 121.225 58.6484C121.473 58.2182 121.659 57.7516 121.783 57.2484V53.1906C121.71 52.8406 121.604 52.487 121.466 52.1297C121.327 51.7724 121.138 51.4406 120.897 51.1344C120.664 50.8208 120.368 50.5729 120.011 50.3906C119.654 50.201 119.22 50.1063 118.709 50.1063C118.214 50.1063 117.783 50.1974 117.419 50.3797C117.061 50.5547 116.763 50.8245 116.522 51.1891C116.289 51.5536 116.114 52.013 115.997 52.5672C115.888 53.1141 115.833 53.7703 115.833 54.5359ZM128.186 61.2297C127.529 61.2297 126.924 61.124 126.37 60.9125C125.823 60.6938 125.349 60.3656 124.948 59.9281C124.554 59.4833 124.248 58.9255 124.029 58.2547C123.811 57.5766 123.701 56.7781 123.701 55.8594V54.4922C123.701 53.5151 123.818 52.6766 124.051 51.9766C124.285 51.2693 124.598 50.6932 124.992 50.2484C125.393 49.7964 125.849 49.4682 126.359 49.2641C126.869 49.0526 127.409 48.9469 127.978 48.9469C128.627 48.9469 129.196 49.0526 129.684 49.2641C130.18 49.4755 130.596 49.7964 130.931 50.2266C131.266 50.6568 131.518 51.2 131.686 51.8563C131.853 52.5052 131.937 53.2745 131.937 54.1641V55.1813H124.434V54.0438H130.723V53.7375C130.709 52.9646 130.599 52.3083 130.395 51.7688C130.198 51.2219 129.899 50.8063 129.498 50.5219C129.104 50.2302 128.601 50.0844 127.989 50.0844C127.537 50.0844 127.121 50.1682 126.742 50.3359C126.363 50.4964 126.035 50.7516 125.758 51.1016C125.488 51.4516 125.28 51.9073 125.134 52.4688C124.996 53.0302 124.926 53.7047 124.926 54.4922V55.8594C124.926 56.5813 125.003 57.2083 125.156 57.7406C125.316 58.2656 125.542 58.7031 125.834 59.0531C126.126 59.3958 126.476 59.6547 126.884 59.8297C127.292 59.9974 127.744 60.0813 128.24 60.0813C128.853 60.0813 129.389 59.9792 129.848 59.775C130.308 59.5635 130.716 59.2464 131.073 58.8234L131.718 59.6328C131.5 59.9172 131.23 60.1833 130.909 60.4313C130.588 60.6719 130.205 60.8651 129.761 61.0109C129.316 61.1568 128.791 61.2297 128.186 61.2297ZM138.788 58.0906C138.788 57.7625 138.701 57.4635 138.526 57.1938C138.358 56.924 138.077 56.6578 137.684 56.3953C137.297 56.1328 136.769 55.8484 136.098 55.5422C135.566 55.3016 135.088 55.0682 134.665 54.8422C134.242 54.6161 133.885 54.3755 133.593 54.1203C133.309 53.8651 133.086 53.5771 132.926 53.2563C132.773 52.9281 132.696 52.5417 132.696 52.0969C132.696 51.6521 132.78 51.2401 132.948 50.8609C133.116 50.4818 133.352 50.15 133.659 49.8656C133.972 49.574 134.344 49.3479 134.774 49.1875C135.212 49.0271 135.7 48.9469 136.24 48.9469C137.013 48.9469 137.673 49.0964 138.22 49.3953C138.767 49.687 139.189 50.0917 139.488 50.6094C139.787 51.1271 139.937 51.725 139.937 52.4031H138.712C138.712 51.9948 138.613 51.6156 138.417 51.2656C138.227 50.9156 137.95 50.6313 137.585 50.4125C137.221 50.1938 136.772 50.0844 136.24 50.0844C135.693 50.0844 135.245 50.1828 134.895 50.3797C134.552 50.5693 134.3 50.8135 134.14 51.1125C133.987 51.4115 133.91 51.725 133.91 52.0531C133.91 52.2938 133.947 52.5089 134.02 52.6984C134.1 52.8807 134.231 53.0594 134.413 53.2344C134.603 53.4021 134.866 53.5807 135.201 53.7703C135.544 53.9526 135.967 54.1714 136.47 54.4266C137.199 54.7401 137.826 55.0536 138.351 55.3672C138.876 55.6734 139.281 56.0344 139.565 56.45C139.849 56.8583 139.992 57.376 139.992 58.0031C139.992 58.4917 139.904 58.9365 139.729 59.3375C139.554 59.7313 139.306 60.0703 138.985 60.3547C138.664 60.6318 138.274 60.8469 137.815 61C137.363 61.1458 136.86 61.2187 136.306 61.2187C135.46 61.2187 134.742 61.0583 134.151 60.7375C133.568 60.4167 133.123 59.9938 132.817 59.4688C132.518 58.9438 132.368 58.375 132.368 57.7625H133.582C133.611 58.3823 133.764 58.8599 134.042 59.1953C134.326 59.5307 134.672 59.7604 135.081 59.8844C135.489 60.0083 135.897 60.0703 136.306 60.0703C136.838 60.0703 137.29 59.9828 137.662 59.8078C138.034 59.6328 138.314 59.3958 138.504 59.0969C138.694 58.7906 138.788 58.4552 138.788 58.0906Z" fill="currentColor"/>
</g>
<defs>
<clipPath id="clip0_176_34">
<rect width="141" height="66" fill="white"/>
</clipPath>
</defs>
</svg>
