<svg width="780" height="387" viewBox="0 0 780 387" fill="none" xmlns="http://www.w3.org/2000/svg">
<g clip-path="url(#clip0_23_325)">
<path d="M267.755 309.008C271.335 299.648 271.854 291.15 268.913 290.027C265.973 288.904 260.688 295.581 257.108 304.941C253.528 314.301 253.01 322.799 255.95 323.922C258.89 325.045 264.176 318.368 267.755 309.008Z" fill="#FDA33A"/>
<path d="M264.711 340.189C267.923 320.407 254.481 301.768 234.687 298.558C214.893 295.348 196.243 308.782 193.031 328.564C189.819 348.346 203.261 366.984 223.055 370.194C242.849 373.405 261.499 359.971 264.711 340.189Z" fill="#FDA33A"/>
<path d="M223.356 362.854H212.326V382.605H223.356V362.854Z" fill="#FDA33A"/>
<path d="M245.417 362.854H234.387V382.605H245.417V362.854Z" fill="#FDA33A"/>
<path d="M221.518 386.28C226.594 386.28 230.71 384.738 230.71 382.835C230.71 380.933 226.594 379.39 221.518 379.39C216.441 379.39 212.326 380.933 212.326 382.835C212.326 384.738 216.441 386.28 221.518 386.28Z" fill="#FDA33A"/>
<path d="M243.579 385.821C248.655 385.821 252.771 384.278 252.771 382.376C252.771 380.473 248.655 378.931 243.579 378.931C238.502 378.931 234.387 380.473 234.387 382.376C234.387 384.278 238.502 385.821 243.579 385.821Z" fill="#FDA33A"/>
<path d="M230.155 337.586C237.006 337.385 242.396 331.672 242.195 324.825C241.993 317.979 236.277 312.592 229.426 312.793C222.575 312.994 217.185 318.708 217.386 325.554C217.588 332.4 223.304 337.787 230.155 337.586Z" fill="#2E57D5"/>
<path d="M229.791 329.324C232.075 329.324 233.927 327.473 233.927 325.19C233.927 322.906 232.075 321.056 229.791 321.056C227.506 321.056 225.654 322.906 225.654 325.19C225.654 327.473 227.506 329.324 229.791 329.324Z" fill="#FDA33A"/>
<path d="M193.651 300.63C190.719 287.509 200.091 274.249 214.583 271.015C229.075 267.781 243.2 275.797 246.132 288.919C249.064 302.041 239.459 306.88 224.967 310.114C210.475 313.348 196.582 313.752 193.651 300.63Z" fill="#FF4CA6"/>
<path d="M204.378 325.314C205.727 322.472 199.477 316.687 190.418 312.393C181.358 308.099 172.921 306.922 171.572 309.764C170.223 312.606 176.474 318.391 185.533 322.685C194.592 326.979 203.03 328.156 204.378 325.314Z" fill="#FDA33A"/>
<path d="M211.036 347.467C211.036 351.019 220.187 358.032 230.34 358.032C240.493 358.032 250.013 348.033 250.013 344.481C250.013 340.93 240.493 345.17 230.34 345.17C220.187 345.17 211.036 343.916 211.036 347.467Z" fill="#2E57D5"/>
<path d="M484.229 235.766L444.79 274.667L355.66 362.563L353.856 364.34L343.807 374.249L322.738 353.446L320.883 351.618L282.363 313.593H282.355L270.012 301.401L262.72 294.197L241.002 272.763L238.068 269.864L203.452 235.69C196.575 228.819 190.746 220.975 186.152 212.41C185.73 211.643 185.334 210.868 184.946 210.093C176.737 193.736 173.224 175.425 174.799 157.193C176.373 138.961 182.972 121.522 193.864 106.813C204.756 92.1026 219.514 80.6972 236.5 73.8628C253.485 67.0284 272.034 65.0324 290.086 68.0963H290.094C290.415 68.1468 290.727 68.1974 291.047 68.2648C294.434 68.862 297.786 69.6411 301.088 70.5987C309.73 73.0953 317.99 76.7606 325.638 81.493C326.439 81.9901 327.232 82.4956 328.016 83.0096C333.622 86.712 338.839 90.9718 343.587 95.7238L343.882 95.4289L344.178 95.7238C347.054 92.8501 350.103 90.1545 353.308 87.6521C354.008 87.1044 354.716 86.5652 355.424 86.0428C366.266 78.0532 378.626 72.3586 391.747 69.3076C404.867 66.2565 418.473 65.9131 431.731 68.2985C435.121 68.8955 438.476 69.6774 441.78 70.6408C442.885 70.9526 443.981 71.2896 445.068 71.6519C445.945 71.9383 446.822 72.2332 447.69 72.5534C454.92 75.1363 461.821 78.558 468.253 82.7484C469.661 83.6667 471.049 84.6273 472.417 85.6299C484.002 94.0462 493.624 104.872 500.62 117.362C507.616 129.851 511.82 143.708 512.943 157.978C514.066 172.247 512.08 186.59 507.123 200.019C502.166 213.448 494.355 225.644 484.229 235.766Z" fill="#2E57D5"/>
<path opacity="0.15" d="M444.79 274.667L355.66 362.563L353.856 364.341L343.807 374.249L322.738 353.446L320.883 351.618L282.363 313.593C288.552 312.152 298.061 314.132 301.543 315.851C309.797 319.921 316.584 326.602 324.964 330.411C332.447 333.787 340.808 334.71 348.848 333.048C363.872 329.897 375.498 318.286 385.75 306.861C396.001 295.428 406.481 283.16 420.889 277.86C428.485 275.063 436.646 274.431 444.79 274.667Z" fill="#001B5F"/>
<path d="M509.588 97.3499C497.324 85.058 482.057 76.1845 465.302 71.6097C464.189 71.298 463.085 71.0199 461.963 70.7587C457.142 69.6076 452.242 68.8218 447.302 68.408C446.442 68.3237 445.582 68.2648 444.714 68.2226C440.382 67.9488 436.036 67.9657 431.705 68.2732C407.986 69.8593 385.613 79.8533 368.61 96.4568L368.306 96.1535L368.003 96.4568C356.894 85.6238 343.415 77.5237 328.631 72.7977C327.797 72.5281 326.953 72.2669 326.11 72.0226C314.725 68.7224 302.847 67.4532 291.022 68.2732C290.693 68.29 290.364 68.3153 290.044 68.349C268.36 70.0105 247.814 78.7092 231.535 93.1203C230 94.4684 228.491 95.8839 227.024 97.3499C213.242 111.149 203.78 128.659 199.791 147.744C195.803 166.828 197.461 186.661 204.564 204.818C204.86 205.611 205.18 206.394 205.517 207.178C210.534 219.134 217.84 229.996 227.024 239.153L259.836 271.524L262.416 274.077L333.42 344.119L335.249 345.93L353.898 364.332L368.306 378.546L509.588 239.144C528.376 220.327 538.928 194.83 538.928 168.247C538.928 141.664 528.376 116.167 509.588 97.3499ZM507.81 237.35L368.306 374.99L355.702 362.554L337.45 344.549L335.62 342.746L265.999 274.052L263.462 271.549L228.811 237.358C219.916 228.492 212.827 217.985 207.937 206.419C207.6 205.636 207.279 204.852 206.984 204.069C200.014 186.352 198.367 166.988 202.244 148.35C206.121 129.712 215.354 112.609 228.811 99.1362C230.38 97.569 231.984 96.0693 233.625 94.6369H233.634C249.295 80.9397 268.94 72.6236 289.681 70.9104C292.438 70.6745 295.198 70.5565 297.96 70.5565C298.997 70.5565 300.026 70.5734 301.063 70.6071C309.535 70.8678 317.938 72.2273 326.06 74.6514C326.895 74.8957 327.729 75.1569 328.555 75.4349C337.341 78.297 345.669 82.4087 353.283 87.6436C358.239 91.0401 362.87 94.8873 367.118 99.1362L368.011 100.029L368.306 99.7344L368.601 100.029L369.495 99.1362C378.94 89.6861 390.229 82.2772 402.659 77.3695C415.09 72.4618 428.397 70.16 441.755 70.6071C442.825 70.6408 443.896 70.6913 444.967 70.7672C445.827 70.8177 446.687 70.8767 447.539 70.961C452.973 71.448 458.357 72.3922 463.633 73.7835C464.762 74.07 465.884 74.3818 466.996 74.7272C483.172 79.6158 497.803 88.6112 509.462 100.836C521.122 113.06 529.412 128.097 533.523 144.478C537.634 160.859 537.426 178.025 532.92 194.302C528.413 210.579 519.762 225.411 507.81 237.35Z" fill="#FDA33A"/>
<path opacity="0.15" d="M311.921 74.4239C306.509 78.6957 300.7 82.6389 297.184 88.4778C294.596 92.7918 293.475 97.805 292.64 102.759C291.022 112.398 290.33 122.273 287.16 131.516C283.999 140.759 277.828 149.589 268.68 153.035C263.006 155.166 256.751 155.048 250.706 154.636C235.792 153.625 220.777 150.954 207.355 144.39C199.852 140.717 192.576 135.762 184.238 135.215C182.541 135.106 180.838 135.199 179.163 135.493C186.438 112.797 201.661 93.4851 222.038 81.1045C242.414 68.7238 266.576 64.1051 290.086 68.0963H290.095C290.415 68.1469 290.727 68.1974 291.047 68.2648C294.434 68.8621 297.786 69.6412 301.088 70.5987C304.77 71.6632 308.387 72.9404 311.921 74.4239Z" fill="#001B5F"/>
<path d="M74.0769 341.566C78.0037 342.945 82.2199 343.291 86.3191 342.569C90.4183 341.848 94.2625 340.083 97.4813 337.446C105.679 330.569 108.249 319.241 110.34 308.751L116.526 277.725L103.576 286.637C94.2629 293.045 84.7402 299.659 78.292 308.942C71.8437 318.224 69.0291 330.896 74.21 340.94L74.0769 341.566Z" fill="#FF4CA6"/>
<path d="M75.184 379.129C73.8733 369.588 72.5256 359.924 73.445 350.28C74.2615 341.716 76.876 333.35 82.1989 326.491C85.0243 322.857 88.4622 319.744 92.3582 317.291C93.3741 316.65 94.3092 318.259 93.2977 318.897C86.5565 323.155 81.3425 329.442 78.4074 336.852C75.1655 345.093 74.6449 354.076 75.2036 362.83C75.5414 368.124 76.2574 373.383 76.9789 378.635C77.0358 378.872 77.0003 379.123 76.8797 379.335C76.759 379.547 76.5622 379.706 76.3289 379.779C76.0909 379.843 75.8373 379.811 75.6229 379.689C75.4086 379.568 75.2509 379.366 75.184 379.129H75.184Z" fill="#5179F9"/>
<path d="M87.8086 362.246C89.4927 364.804 91.8077 366.885 94.5305 368.29C97.2532 369.694 100.292 370.374 103.354 370.264C111.223 369.891 117.784 364.402 123.69 359.191L141.158 343.777L129.597 343.224C121.283 342.826 112.754 342.456 104.836 345.018C96.917 347.58 89.614 353.747 88.166 361.938L87.8086 362.246Z" fill="#FF4CA6"/>
<path d="M71.4797 384.614C77.7884 373.458 85.1059 361.06 98.181 357.097C101.817 355.999 105.629 355.606 109.412 355.938C110.604 356.041 110.307 357.878 109.116 357.775C102.775 357.249 96.4451 358.923 91.1935 362.514C86.1399 365.952 82.2051 370.731 78.8748 375.8C76.8349 378.904 75.0076 382.14 73.18 385.372C72.596 386.405 70.8888 385.659 71.4797 384.614H71.4797Z" fill="#5179F9"/>
<path d="M253.927 100.833C273.98 100.833 290.236 84.5872 290.236 64.5466C290.236 44.5059 273.98 28.2598 253.927 28.2598C233.874 28.2598 217.618 44.5059 217.618 64.5466C217.618 84.5872 233.874 100.833 253.927 100.833Z" fill="#FDA33A"/>
<path d="M248.412 93.0249H237.381V112.776H248.412V93.0249Z" fill="#FDA33A"/>
<path d="M270.473 93.0249H259.442V112.776H270.473V93.0249Z" fill="#FDA33A"/>
<path d="M246.573 116.451C251.65 116.451 255.765 114.908 255.765 113.006C255.765 111.103 251.65 109.561 246.573 109.561C241.496 109.561 237.381 111.103 237.381 113.006C237.381 114.908 241.496 116.451 246.573 116.451Z" fill="#FDA33A"/>
<path d="M268.634 115.991C273.711 115.991 277.826 114.449 277.826 112.546C277.826 110.644 273.711 109.101 268.634 109.101C263.558 109.101 259.442 110.644 259.442 112.546C259.442 114.449 263.558 115.991 268.634 115.991Z" fill="#FDA33A"/>
<path d="M254.846 67.7619C261.7 67.7619 267.255 62.2094 267.255 55.3601C267.255 48.5107 261.7 42.9583 254.846 42.9583C247.993 42.9583 242.437 48.5107 242.437 55.3601C242.437 62.2094 247.993 67.7619 254.846 67.7619Z" fill="#2E57D5"/>
<path d="M261.994 60.8199C263.603 59.2126 263.594 56.5969 261.975 54.9774C260.355 53.358 257.738 53.3482 256.129 54.9555C254.52 56.5628 254.528 59.1786 256.148 60.798C257.768 62.4174 260.385 62.4272 261.994 60.8199Z" fill="#FDA33A"/>
<path d="M218.706 30.8009C215.774 17.6791 225.146 4.42001 239.638 1.18594C254.131 -2.04812 268.256 5.96757 271.188 19.0894C274.119 32.2113 264.515 37.0509 250.022 40.2849C235.53 43.5189 221.638 43.9228 218.706 30.8009Z" fill="#FF4CA6"/>
<path d="M545.9 311.787C548.328 309.786 545.125 301.897 538.746 294.166C532.367 286.436 525.227 281.791 522.799 283.793C520.37 285.794 523.573 293.683 529.952 301.414C536.331 309.144 543.471 313.789 545.9 311.787Z" fill="#FDA33A"/>
<path d="M571.774 369.825C591.567 366.614 605.01 347.976 601.798 328.194C598.585 308.412 579.935 294.978 560.141 298.188C540.347 301.398 526.905 320.037 530.117 339.819C533.329 359.601 551.98 373.035 571.774 369.825Z" fill="#FDA33A"/>
<path d="M582.503 362.484H571.473V382.235H582.503V362.484Z" fill="#FDA33A"/>
<path d="M560.442 362.484H549.412V382.235H560.442V362.484Z" fill="#FDA33A"/>
<path d="M573.311 385.91C578.388 385.91 582.503 384.368 582.503 382.465C582.503 380.563 578.388 379.02 573.311 379.02C568.234 379.02 564.119 380.563 564.119 382.465C564.119 384.368 568.234 385.91 573.311 385.91Z" fill="#FDA33A"/>
<path d="M551.25 385.451C556.327 385.451 560.442 383.908 560.442 382.006C560.442 380.103 556.327 378.561 551.25 378.561C546.173 378.561 542.058 380.103 542.058 382.006C542.058 383.908 546.173 385.451 551.25 385.451Z" fill="#FDA33A"/>
<path d="M578.67 314.646C567.223 305.193 560.861 296.525 569.43 286.16C578 275.796 594.226 275.057 605.673 284.51C617.12 293.963 619.453 310.029 610.883 320.393C602.314 330.757 590.117 324.099 578.67 314.646Z" fill="#2E57D5"/>
<path d="M553.768 327.573C560.619 327.372 566.009 321.659 565.808 314.812C565.606 307.966 559.89 302.579 553.039 302.78C546.189 302.981 540.798 308.695 541 315.541C541.201 322.387 546.918 327.774 553.768 327.573Z" fill="#2E57D5"/>
<path d="M549.042 316.239C551.327 316.239 553.179 314.388 553.179 312.105C553.179 309.822 551.327 307.971 549.042 307.971C546.758 307.971 544.906 309.822 544.906 312.105C544.906 314.388 546.758 316.239 549.042 316.239Z" fill="#FDA33A"/>
<path d="M534.647 325.391C532.134 327.902 530.358 336.045 533.892 339.577C537.427 343.109 547.815 339.351 550.328 336.84C552.841 334.329 546.526 334.015 542.992 330.483C539.457 326.95 537.16 322.88 534.647 325.391Z" fill="#2E57D5"/>
<path d="M600.423 382.531C603.363 381.408 602.845 372.91 599.265 363.55C595.685 354.19 590.4 347.513 587.46 348.636C584.52 349.759 585.038 358.257 588.618 367.617C592.198 376.977 597.483 383.654 600.423 382.531Z" fill="#FDA33A"/>
<path d="M779.085 386.469H1.77154C1.54794 386.469 1.3335 386.38 1.1754 386.222C1.01729 386.064 0.928467 385.85 0.928467 385.627C0.928467 385.403 1.01729 385.189 1.1754 385.031C1.3335 384.873 1.54794 384.784 1.77154 384.784H779.085C779.309 384.784 779.523 384.873 779.682 385.031C779.84 385.189 779.928 385.403 779.928 385.627C779.928 385.85 779.84 386.064 779.682 386.222C779.523 386.38 779.309 386.469 779.085 386.469Z" fill="#001B5F"/>
</g>
<defs>
<clipPath id="clip0_23_325">
<rect width="779" height="386" fill="white" transform="translate(0.928467 0.469238)"/>
</clipPath>
</defs>
</svg>
