<svg width="521" height="429" viewBox="0 0 521 429" fill="none" xmlns="http://www.w3.org/2000/svg">
<path d="M423.954 43.2708C427.277 29.7089 424.118 13.8925 413.384 4.97192C413.174 20.1555 407.604 34.7754 397.66 46.2449C393.809 50.6543 389.067 55.1574 388.881 61.0107C388.764 64.6527 390.541 68.1509 392.989 70.8483C395.437 73.5457 398.525 75.5643 401.577 77.5521L402.025 78.3435C411.848 68.4271 420.632 56.8328 423.954 43.2708Z" fill="#7E93FF"/>
<path d="M413.168 5.17C417.285 15.9687 417.897 27.791 414.917 38.9576C414.319 41.373 413.343 43.6788 412.027 45.7901C410.679 47.8054 408.815 49.4225 406.631 50.4734C404.614 51.4942 402.433 52.3046 400.699 53.7983C399.823 54.5761 399.121 55.5305 398.639 56.5988C398.157 57.6671 397.907 58.8253 397.904 59.9974C397.82 62.9177 398.79 65.694 399.832 68.3759C400.99 71.3537 402.239 74.4284 401.972 77.6887C401.939 78.0837 402.554 78.1109 402.586 77.7165C403.052 72.0442 399.202 67.2529 398.592 61.751C398.307 59.1838 398.793 56.5151 400.69 54.6433C402.348 53.0065 404.597 52.1688 406.648 51.1529C408.794 50.159 410.664 48.6543 412.095 46.7704C413.514 44.733 414.577 42.4686 415.237 40.0744C416.809 34.7079 417.529 29.1273 417.369 23.5372C417.222 17.1562 415.985 10.8474 413.712 4.88373C413.572 4.51467 413.028 4.80334 413.168 5.16999V5.17Z" fill="#001E69"/>
<path d="M416.088 35.4185C418.028 35.6645 419.992 35.2122 421.63 34.1427C423.267 33.0731 424.472 31.4559 425.028 29.5797C425.139 29.1997 424.554 29.0089 424.443 29.3894C423.928 31.1374 422.806 32.6438 421.279 33.6367C419.752 34.6295 417.921 35.0435 416.116 34.8037C415.724 34.7521 415.698 35.3672 416.088 35.4185Z" fill="#001E69"/>
<path d="M407.722 50.0906C405.245 46.9509 404.041 42.9922 404.351 39.0038C404.382 38.6087 403.768 38.5813 403.737 38.9759C403.422 43.1269 404.683 47.244 407.268 50.5056C407.514 50.8163 407.967 50.3996 407.722 50.0906Z" fill="#001E69"/>
<path d="M416.481 17.4976C415.711 17.559 414.937 17.4279 414.23 17.1162C413.523 16.8044 412.904 16.3217 412.429 15.7114C412.187 15.3977 411.734 15.8148 411.975 16.1265C412.503 16.7983 413.187 17.3305 413.967 17.6767C414.748 18.0229 415.602 18.1725 416.453 18.1124C416.534 18.1135 416.612 18.0838 416.672 18.0292C416.732 17.9747 416.768 17.8995 416.774 17.8189C416.778 17.7375 416.749 17.6581 416.694 17.5979C416.639 17.5378 416.563 17.5017 416.481 17.4976Z" fill="#001E69"/>
<path d="M366.964 13.7515C367.11 13.9516 367.256 14.1518 367.4 14.3569C369.347 17.0583 371.072 19.9136 372.557 22.8945C372.676 23.1232 372.792 23.3567 372.904 23.5883C376.406 30.8082 378.538 38.616 379.192 46.6148C379.449 49.798 379.464 52.9961 379.236 56.1815C378.921 60.5807 378.231 65.3254 379.353 69.4502C379.466 69.8819 379.605 70.3062 379.769 70.7207L401.026 78.8292C401.083 78.8234 401.139 78.8224 401.197 78.8167L402.031 79.1793C402.054 79.0158 402.075 78.8458 402.098 78.6823C402.112 78.5875 402.121 78.491 402.135 78.3962C402.142 78.3325 402.15 78.2686 402.161 78.2115C402.163 78.1903 402.166 78.169 402.166 78.1526C402.177 78.0956 402.181 78.0414 402.19 77.9892C402.307 77.039 402.418 76.0864 402.523 75.1313C402.525 75.1264 402.525 75.1264 402.522 75.1198C403.388 67.8496 403.39 60.5023 402.527 53.2318C402.498 53.0152 402.472 52.7938 402.433 52.5735C401.986 49.3304 401.275 46.1294 400.308 43.0022C399.772 41.2916 399.15 39.6092 398.445 37.9615C396.614 33.7076 394.126 29.7684 391.071 26.2884C384.982 19.3518 376.743 14.4414 367.659 13.7941C367.426 13.7777 367.198 13.763 366.964 13.7515Z" fill="#7E93FF"/>
<path d="M366.909 14.0398C376.692 20.1814 384.293 29.252 388.633 39.9631C389.608 42.2524 390.216 44.6812 390.435 47.16C390.571 49.5816 390.056 51.9954 388.944 54.1506C387.948 56.1809 386.694 58.1423 386.208 60.3796C385.977 61.5285 385.99 62.7135 386.248 63.8568C386.506 65.0001 387.003 66.0759 387.706 67.0136C389.396 69.3958 391.84 71.0282 394.286 72.5414C397.002 74.2215 399.849 75.9235 401.597 78.6879C401.809 79.0228 402.316 78.6744 402.104 78.34C399.063 73.5304 393.107 72.0243 389.31 67.9992C387.538 66.1211 386.321 63.6971 386.709 61.0598C387.049 58.7536 388.34 56.7299 389.367 54.6829C390.482 52.5964 391.07 50.2683 391.079 47.902C390.986 45.42 390.473 42.9718 389.559 40.6623C387.586 35.4301 384.803 30.5408 381.313 26.1737C377.357 21.1674 372.574 16.8754 367.171 13.4832C366.837 13.2733 366.577 13.8314 366.909 14.0398V14.0398Z" fill="#001E69"/>
<path d="M387.438 36.432C389.135 35.4595 390.431 33.915 391.095 32.0743C391.759 30.2336 391.748 28.2167 391.063 26.3837C390.923 26.0132 390.342 26.2133 390.482 26.5842C391.122 28.2899 391.133 30.1687 390.511 31.8815C389.889 33.5943 388.676 35.0281 387.091 35.9243C386.746 36.1195 387.096 36.6261 387.438 36.432Z" fill="#001E69"/>
<path d="M389.585 53.1876C385.718 52.1733 382.376 49.7377 380.224 46.3665C380.011 46.0323 379.504 46.3807 379.716 46.7144C381.962 50.2184 385.446 52.7459 389.472 53.7926C389.856 53.8921 389.967 53.2866 389.585 53.1876Z" fill="#001E69"/>
<path d="M376.971 21.8863C376.393 22.3995 375.696 22.761 374.944 22.9382C374.191 23.1154 373.407 23.1029 372.661 22.9017C372.278 22.7974 372.168 23.4031 372.548 23.5067C373.373 23.7251 374.24 23.7379 375.071 23.5439C375.903 23.35 376.674 22.9551 377.318 22.3939C377.384 22.3461 377.428 22.2753 377.443 22.1959C377.458 22.1164 377.442 22.0343 377.398 21.9662C377.352 21.8992 377.281 21.8532 377.201 21.8383C377.121 21.8233 377.038 21.8406 376.971 21.8863V21.8863Z" fill="#001E69"/>
<path d="M338.859 320.097C267.595 320.097 209.618 262.075 209.618 190.756C209.618 119.437 267.595 61.4146 338.859 61.4146C346.393 61.4136 353.913 62.0657 361.335 63.3636C361.427 63.3796 361.516 63.4137 361.595 63.464C361.674 63.5142 361.743 63.5797 361.797 63.6565C361.851 63.7334 361.889 63.8202 361.91 63.9119C361.93 64.0036 361.933 64.0985 361.916 64.1911C361.9 64.2837 361.866 64.3721 361.815 64.4514C361.765 64.5307 361.699 64.5992 361.622 64.6531C361.546 64.707 361.459 64.7452 361.367 64.7654C361.275 64.7857 361.181 64.7877 361.088 64.7712C353.748 63.4878 346.31 62.8429 338.859 62.8437C268.383 62.8437 211.046 120.225 211.046 190.756C211.046 261.287 268.383 318.668 338.859 318.668C409.335 318.668 466.672 261.287 466.672 190.756C466.703 158.876 454.809 128.14 433.33 104.598C433.203 104.458 433.137 104.273 433.147 104.085C433.156 103.896 433.239 103.719 433.379 103.592C433.518 103.464 433.702 103.398 433.891 103.406C434.079 103.414 434.257 103.496 434.385 103.635C456.104 127.44 468.132 158.52 468.1 190.756C468.1 262.075 410.122 320.097 338.859 320.097Z" fill="#7E93FF"/>
<path d="M395.844 105.774C409.967 105.774 421.415 94.3167 421.415 80.1835C421.415 66.0504 409.967 54.5933 395.844 54.5933C381.722 54.5933 370.274 66.0504 370.274 80.1835C370.274 94.3167 381.722 105.774 395.844 105.774Z" fill="#5179F9"/>
<path d="M392.356 93.5023C391.914 93.5023 391.479 93.3994 391.084 93.2017C390.689 93.004 390.346 92.717 390.081 92.3634L383.105 83.0547C382.881 82.7556 382.718 82.4153 382.625 82.0532C382.532 81.6911 382.512 81.3143 382.564 80.9442C382.617 80.5742 382.742 80.2182 382.933 79.8965C383.123 79.5749 383.375 79.2939 383.674 79.0696C383.973 78.8453 384.313 78.6821 384.674 78.5894C385.036 78.4966 385.413 78.4761 385.783 78.529C386.152 78.5819 386.508 78.7071 386.829 78.8976C387.151 79.088 387.432 79.34 387.656 79.639L392.22 85.7286L403.942 68.1323C404.361 67.5067 405.011 67.0731 405.75 66.9265C406.488 66.7799 407.255 66.9322 407.881 67.3502C408.508 67.7681 408.943 68.4175 409.092 69.1561C409.24 69.8947 409.091 70.6621 408.675 71.2903L394.723 92.2346C394.47 92.6134 394.131 92.9261 393.733 93.1465C393.335 93.3669 392.89 93.4886 392.435 93.5013C392.409 93.5018 392.382 93.5023 392.356 93.5023Z" fill="#001E69"/>
<path d="M335.534 170.684L296.102 60.9001L297.102 60.5404L289.85 40.3483L288.85 40.7084L276.743 7.00144C276.29 5.74252 275.595 4.58505 274.696 3.59513C273.797 2.60521 272.712 1.80221 271.502 1.232C270.293 0.661782 268.983 0.335506 267.648 0.271808C266.313 0.208111 264.978 0.408237 263.72 0.860756L192.436 26.5041C191.178 26.9566 190.022 27.6526 189.032 28.5524C188.043 29.4522 187.241 30.5382 186.671 31.7484C186.101 32.9585 185.775 34.2691 185.712 35.6054C185.648 36.9417 185.848 38.2774 186.3 39.5363L194.741 63.0388L193.161 63.6477L198.55 77.6517L199.815 77.1642L200.934 80.2792L199.588 80.798L204.977 94.8019L206.007 94.4046L245.091 203.219C245.541 204.479 246.235 205.638 247.134 206.629C248.033 207.621 249.118 208.425 250.328 208.995C251.538 209.566 252.848 209.892 254.184 209.954C255.52 210.017 256.856 209.815 258.113 209.36L329.397 183.716C331.936 182.8 334.008 180.913 335.158 178.47C336.308 176.026 336.443 173.226 335.534 170.684Z" fill="#2E57D5"/>
<path d="M254.365 205.741C253.361 205.739 252.382 205.428 251.561 204.849C250.74 204.271 250.118 203.453 249.777 202.508L190.366 37.0985C189.929 35.8803 189.993 34.538 190.544 33.3669C191.095 32.1958 192.089 31.2919 193.306 30.8539L208.473 25.3978L208.451 25.9289C208.412 26.8507 208.6 27.768 208.999 28.6C209.397 29.4319 209.994 30.1529 210.737 30.6995C211.48 31.2461 212.346 31.6015 213.258 31.7343C214.171 31.8672 215.102 31.7734 215.969 31.4614L249.629 19.3527C250.442 18.9802 251.155 18.4215 251.712 17.7218C252.269 17.0221 252.653 16.201 252.834 15.3251C253.013 14.4638 252.986 13.5724 252.755 12.7236C252.524 11.8747 252.096 11.0926 251.505 10.4409L251.15 10.0456L266.817 4.40944C268.034 3.97333 269.375 4.03821 270.545 4.58987C271.714 5.14153 272.618 6.13493 273.057 7.35224L329.74 165.167C330.897 168.4 330.725 171.96 329.263 175.066C327.8 178.173 325.166 180.572 321.938 181.737L256.017 205.451C255.487 205.643 254.928 205.741 254.365 205.741Z" fill="#001E69"/>
<path d="M248.557 88.4193C259.204 88.4193 267.836 79.7811 267.836 69.1253C267.836 58.4695 259.204 49.8313 248.557 49.8313C237.909 49.8313 229.278 58.4695 229.278 69.1253C229.278 79.7811 237.909 88.4193 248.557 88.4193Z" fill="#5179F9"/>
<path d="M296.33 97.1833L229.566 121.201C229.357 121.276 229.136 121.31 228.914 121.3C228.693 121.29 228.475 121.236 228.275 121.141C228.074 121.047 227.894 120.914 227.744 120.75C227.595 120.586 227.48 120.394 227.405 120.185C227.33 119.976 227.296 119.754 227.307 119.533C227.318 119.311 227.372 119.093 227.467 118.893C227.562 118.692 227.695 118.512 227.859 118.363C228.024 118.214 228.216 118.099 228.425 118.024L295.189 94.007C295.61 93.8569 296.072 93.8799 296.476 94.0708C296.88 94.2618 297.191 94.6052 297.342 95.0257C297.493 95.4462 297.472 95.9095 297.282 96.314C297.092 96.7185 296.75 97.0311 296.33 97.1833Z" fill="#FDA33A"/>
<path d="M276.503 112.412L254.542 120.312C254.334 120.387 254.113 120.421 253.891 120.41C253.67 120.4 253.452 120.346 253.252 120.252C253.051 120.157 252.871 120.024 252.722 119.86C252.572 119.696 252.457 119.504 252.382 119.295C252.307 119.086 252.274 118.865 252.284 118.643C252.295 118.422 252.349 118.204 252.444 118.004C252.539 117.803 252.672 117.623 252.836 117.474C253.001 117.325 253.193 117.21 253.402 117.135L275.362 109.235C275.783 109.084 276.247 109.106 276.651 109.296C277.056 109.487 277.368 109.831 277.52 110.252C277.671 110.674 277.649 111.138 277.458 111.543C277.268 111.948 276.924 112.26 276.503 112.412Z" fill="#FDA33A"/>
<path d="M281.727 126.954L259.766 134.854C259.558 134.929 259.336 134.962 259.115 134.952C258.894 134.941 258.677 134.887 258.477 134.793C258.276 134.698 258.097 134.565 257.948 134.401C257.799 134.237 257.683 134.045 257.608 133.837C257.534 133.628 257.5 133.407 257.511 133.185C257.521 132.964 257.575 132.747 257.67 132.546C257.764 132.346 257.897 132.166 258.061 132.017C258.225 131.868 258.417 131.752 258.625 131.678L280.586 123.777C281.007 123.626 281.47 123.648 281.875 123.839C282.28 124.03 282.592 124.374 282.743 124.795C282.894 125.216 282.872 125.68 282.682 126.085C282.491 126.49 282.147 126.803 281.727 126.954V126.954Z" fill="#FDA33A"/>
<path d="M284.402 134.403L262.441 142.303C262.233 142.378 262.011 142.412 261.79 142.402C261.568 142.392 261.351 142.338 261.15 142.244C260.949 142.149 260.769 142.016 260.62 141.852C260.47 141.688 260.355 141.496 260.28 141.287C260.205 141.078 260.172 140.856 260.182 140.635C260.193 140.413 260.247 140.195 260.342 139.995C260.437 139.794 260.57 139.614 260.735 139.465C260.899 139.316 261.091 139.201 261.3 139.126L283.261 131.226C283.47 131.151 283.691 131.117 283.913 131.127C284.134 131.137 284.351 131.191 284.552 131.286C284.753 131.38 284.933 131.513 285.082 131.677C285.232 131.841 285.347 132.033 285.422 132.242C285.497 132.451 285.53 132.673 285.52 132.894C285.509 133.116 285.455 133.334 285.36 133.534C285.265 133.735 285.132 133.915 284.967 134.064C284.803 134.213 284.611 134.328 284.402 134.403L284.402 134.403Z" fill="#FDA33A"/>
<path d="M291.395 115.15L244.801 131.911C244.593 131.987 244.372 132.021 244.15 132.01C243.928 132 243.711 131.946 243.51 131.852C243.31 131.758 243.129 131.625 242.98 131.46C242.831 131.296 242.715 131.104 242.64 130.895C242.565 130.686 242.532 130.465 242.543 130.243C242.554 130.021 242.608 129.804 242.703 129.603C242.797 129.403 242.931 129.223 243.095 129.074C243.26 128.925 243.452 128.81 243.661 128.735L290.254 111.974C290.462 111.898 290.684 111.865 290.905 111.875C291.127 111.885 291.344 111.939 291.545 112.033C291.745 112.128 291.926 112.261 292.075 112.425C292.224 112.589 292.34 112.781 292.415 112.99C292.49 113.199 292.523 113.42 292.512 113.642C292.501 113.864 292.447 114.081 292.352 114.282C292.258 114.482 292.124 114.662 291.96 114.812C291.796 114.961 291.603 115.076 291.395 115.15Z" fill="#FDA33A"/>
<path d="M282.01 152.484L274.036 155.353C273.32 155.609 272.532 155.571 271.844 155.247C271.157 154.922 270.626 154.338 270.369 153.622C270.112 152.906 270.149 152.117 270.473 151.429C270.797 150.741 271.38 150.209 272.096 149.951L280.069 147.083C280.785 146.826 281.573 146.864 282.261 147.188C282.948 147.513 283.479 148.097 283.736 148.813C283.993 149.529 283.956 150.318 283.632 151.006C283.308 151.695 282.725 152.226 282.01 152.484Z" fill="#5179F9"/>
<path d="M219.173 25.9324C219.786 25.9324 220.282 25.4355 220.282 24.8226C220.282 24.2097 219.786 23.7129 219.173 23.7129C218.561 23.7129 218.064 24.2097 218.064 24.8226C218.064 25.4355 218.561 25.9324 219.173 25.9324Z" fill="#001E69"/>
<path d="M91.6465 87.2379C104.075 72.597 124.24 63.3702 142.831 68.1538C126.087 80.6293 114.292 98.6299 109.532 118.971C107.725 126.822 106.532 135.743 100.163 140.671C96.1995 143.737 90.8704 144.575 85.8921 144.018C80.9137 143.462 76.1753 141.644 71.5007 139.842L70.2578 139.98C73.3842 121.026 79.2182 101.879 91.6465 87.2379Z" fill="#7E93FF"/>
<path d="M142.785 68.5542C127.437 72.6675 113.774 81.5159 103.737 93.8427C101.529 96.458 99.7469 99.4052 98.4562 102.576C97.2986 105.705 96.9994 109.088 97.5897 112.372C98.0787 115.445 98.9344 118.532 98.6684 121.67C98.5084 123.275 98.0113 124.828 97.2097 126.226C96.4081 127.625 95.32 128.839 94.0169 129.787C90.8314 132.235 86.957 133.391 83.129 134.39C78.8786 135.5 74.4463 136.584 71.0302 139.511C70.6164 139.866 70.0907 139.203 70.5039 138.849C76.4472 133.756 84.8879 134.188 91.5088 130.433C94.5983 128.681 97.1789 125.987 97.7348 122.362C98.2209 119.192 97.3411 116.008 96.8191 112.901C96.1963 109.705 96.3647 106.406 97.3098 103.291C98.435 100.065 100.101 97.0535 102.235 94.3866C106.946 88.3058 112.582 83.004 118.938 78.6754C126.164 73.695 134.189 69.9884 142.664 67.716C143.189 67.5756 143.306 68.4147 142.785 68.5542H142.785Z" fill="#001E69"/>
<path d="M106.735 89.6828C104.897 87.7168 103.818 85.1609 103.689 82.4717C103.56 79.7824 104.391 77.1349 106.032 75.002C106.366 74.5716 107.05 75.0702 106.716 75.5012C105.183 77.4846 104.41 79.9508 104.535 82.4548C104.66 84.9588 105.675 87.3355 107.398 89.1561C107.772 89.5522 107.107 90.0766 106.735 89.6828H106.735Z" fill="#001E69"/>
<path d="M97.1367 110.846C102.631 111.078 108.011 109.23 112.204 105.668C112.619 105.315 113.145 105.979 112.731 106.331C108.36 110.029 102.758 111.942 97.0405 111.687C96.4956 111.663 96.5948 110.822 97.1367 110.846Z" fill="#001E69"/>
<path d="M126.381 74.7963C126.934 75.7054 127.704 76.4627 128.621 77.0005C129.539 77.5382 130.575 77.8394 131.638 77.8772C132.183 77.8948 132.083 78.7359 131.542 78.7184C130.368 78.6712 129.223 78.3371 128.208 77.7453C127.193 77.1534 126.339 76.3218 125.719 75.3231C125.652 75.2338 125.623 75.1227 125.635 75.0122C125.648 74.9017 125.702 74.8002 125.787 74.7282C125.875 74.6589 125.987 74.6272 126.098 74.64C126.209 74.6527 126.311 74.7089 126.381 74.7963Z" fill="#001E69"/>
<path d="M170.476 127.021C170.135 127.019 169.795 127.018 169.45 127.022C164.871 127.028 160.3 127.406 155.782 128.152C155.432 128.204 155.077 128.262 154.729 128.324C143.864 130.238 133.448 134.155 124.01 139.874C120.257 142.153 116.683 144.715 113.318 147.537C108.671 151.435 103.943 156.031 98.4427 158.104C97.8714 158.327 97.2867 158.514 96.6922 158.664L70.5225 141.487C70.4826 141.418 70.4385 141.355 70.3983 141.285L69.3221 140.647C69.4855 140.49 69.6584 140.33 69.8217 140.172C69.9161 140.08 70.0164 139.992 70.1107 139.9C70.1755 139.84 70.2406 139.78 70.2956 139.722C70.3171 139.702 70.3389 139.683 70.3565 139.668C70.4115 139.611 70.4688 139.563 70.5199 139.511C71.4835 138.614 72.4552 137.722 73.4348 136.835C73.4387 136.829 73.4387 136.829 73.4484 136.827C80.9297 130.089 89.0388 123.918 97.826 119.175C98.0904 119.032 98.3585 118.883 98.6349 118.748C102.608 116.632 106.746 114.845 111.01 113.403C113.347 112.622 115.723 111.959 118.127 111.417C124.342 110.031 130.736 109.631 137.075 110.232C149.711 111.434 161.823 116.666 169.869 126.28C170.074 126.526 170.274 126.769 170.476 127.021Z" fill="#7E93FF"/>
<path d="M170.199 127.314C155.47 121.351 139.238 120.183 123.808 123.978C120.472 124.736 117.276 126.015 114.338 127.769C111.531 129.57 109.257 132.091 107.753 135.069C106.295 137.817 105.121 140.797 103.02 143.143C101.927 144.328 100.596 145.268 99.1146 145.902C97.6331 146.536 96.0343 146.849 94.4233 146.821C90.4072 146.856 86.618 145.445 82.9605 143.936C78.8995 142.261 74.7078 140.456 70.2194 140.735C69.6756 140.769 69.655 139.922 70.198 139.889C78.0071 139.404 84.4867 144.834 92.0319 145.826C95.5526 146.288 99.234 145.692 101.859 143.133C104.154 140.894 105.367 137.822 106.82 135.027C108.245 132.1 110.364 129.567 112.993 127.649C115.832 125.751 118.973 124.351 122.282 123.508C129.701 121.491 137.391 120.653 145.07 121.027C153.836 121.405 162.473 123.28 170.608 126.573C171.111 126.777 170.699 127.517 170.199 127.314L170.199 127.314Z" fill="#001E69"/>
<path d="M128.705 122.464C128.42 119.786 129.096 117.095 130.611 114.87C132.126 112.645 134.382 111.032 136.975 110.318C137.501 110.175 137.747 110.986 137.221 111.129C134.804 111.789 132.703 113.292 131.296 115.367C129.89 117.441 129.271 119.951 129.551 122.442C129.611 122.984 128.765 123.002 128.705 122.464V122.464Z" fill="#001E69"/>
<path d="M108.309 133.578C112.557 137.074 117.965 138.839 123.455 138.522C123.999 138.491 124.019 139.337 123.476 139.369C117.762 139.688 112.138 137.839 107.726 134.191C107.306 133.843 107.891 133.232 108.309 133.578H108.309Z" fill="#001E69"/>
<path d="M153.347 122.415C153.241 123.474 153.4 124.542 153.809 125.524C154.218 126.506 154.865 127.372 155.691 128.042C156.115 128.384 155.529 128.996 155.108 128.656C154.199 127.911 153.486 126.954 153.032 125.87C152.577 124.786 152.395 123.607 152.501 122.436C152.502 122.325 152.545 122.218 152.621 122.138C152.698 122.057 152.802 122.009 152.913 122.002C153.025 122 153.134 122.042 153.215 122.119C153.296 122.197 153.343 122.303 153.347 122.415Z" fill="#001E69"/>
<path d="M464.636 368.637C478.188 371.962 493.992 368.801 502.905 358.058C487.734 357.848 473.125 352.274 461.664 342.323C457.258 338.469 452.759 333.723 446.91 333.536C443.271 333.42 439.776 335.198 437.08 337.648C434.385 340.098 432.368 343.189 430.382 346.243L429.591 346.691C439.5 356.522 451.085 365.312 464.636 368.637Z" fill="#7E93FF"/>
<path d="M502.708 357.842C491.917 361.962 480.104 362.575 468.946 359.593C466.533 358.994 464.229 358.018 462.119 356.701C460.105 355.351 458.489 353.487 457.439 351.301C456.419 349.282 455.609 347.099 454.117 345.364C453.34 344.487 452.386 343.785 451.319 343.302C450.251 342.82 449.094 342.569 447.923 342.566C445.005 342.483 442.231 343.453 439.551 344.496C436.575 345.655 433.503 346.905 430.245 346.638C429.85 346.605 429.823 347.22 430.217 347.252C435.885 347.718 440.673 343.866 446.17 343.255C448.736 342.97 451.402 343.457 453.273 345.355C454.908 347.015 455.745 349.265 456.76 351.318C457.753 353.465 459.257 355.337 461.139 356.768C463.175 358.189 465.438 359.252 467.83 359.913C473.193 361.487 478.769 362.207 484.355 362.047C490.731 361.9 497.035 360.662 502.994 358.387C503.362 358.246 503.074 357.702 502.708 357.842H502.708Z" fill="#001E69"/>
<path d="M472.482 360.765C472.237 362.707 472.689 364.672 473.757 366.311C474.826 367.95 476.442 369.155 478.317 369.712C478.697 369.823 478.887 369.238 478.507 369.126C476.76 368.611 475.255 367.488 474.263 365.96C473.271 364.432 472.857 362.599 473.097 360.793C473.148 360.4 472.534 360.375 472.482 360.765V360.765Z" fill="#001E69"/>
<path d="M457.822 352.392C460.959 349.913 464.915 348.709 468.9 349.019C469.295 349.05 469.322 348.435 468.928 348.404C464.78 348.089 460.666 349.351 457.407 351.938C457.097 352.184 457.513 352.638 457.822 352.392H457.822Z" fill="#001E69"/>
<path d="M490.389 361.158C490.328 360.387 490.459 359.613 490.771 358.905C491.082 358.198 491.564 357.578 492.174 357.103C492.488 356.86 492.071 356.408 491.76 356.649C491.088 357.177 490.556 357.861 490.211 358.643C489.865 359.424 489.715 360.278 489.775 361.131C489.774 361.211 489.804 361.29 489.858 361.349C489.913 361.409 489.988 361.446 490.068 361.452C490.15 361.455 490.229 361.426 490.289 361.371C490.349 361.316 490.385 361.24 490.389 361.158Z" fill="#001E69"/>
<path d="M494.133 311.603C493.933 311.749 493.733 311.894 493.528 312.039C490.828 313.988 487.975 315.714 484.997 317.2C484.768 317.319 484.535 317.435 484.304 317.547C477.089 321.052 469.287 323.185 461.295 323.84C458.114 324.097 454.919 324.112 451.736 323.884C447.34 323.569 442.599 322.878 438.477 324.002C438.046 324.114 437.622 324.253 437.208 324.418L429.105 345.691C429.111 345.748 429.112 345.804 429.118 345.862L428.756 346.697C428.919 346.72 429.089 346.74 429.252 346.764C429.347 346.778 429.443 346.787 429.538 346.8C429.602 346.808 429.666 346.816 429.723 346.826C429.744 346.829 429.765 346.831 429.781 346.832C429.839 346.843 429.893 346.847 429.945 346.855C430.894 346.973 431.846 347.084 432.8 347.189C432.805 347.191 432.805 347.191 432.812 347.188C440.076 348.055 447.418 348.057 454.683 347.193C454.899 347.164 455.121 347.138 455.341 347.099C458.581 346.652 461.78 345.941 464.905 344.972C466.614 344.436 468.295 343.814 469.941 343.108C474.192 341.275 478.128 338.785 481.606 335.729C488.537 329.634 493.443 321.39 494.09 312.298C494.106 312.065 494.121 311.837 494.133 311.603Z" fill="#7E93FF"/>
<path d="M493.845 311.548C487.708 321.339 478.644 328.946 467.941 333.288C465.654 334.264 463.227 334.873 460.75 335.092C458.33 335.228 455.918 334.713 453.765 333.6C451.736 332.603 449.776 331.348 447.541 330.862C446.393 330.63 445.209 330.644 444.066 330.902C442.924 331.16 441.849 331.657 440.912 332.36C438.532 334.052 436.901 336.498 435.388 338.946C433.71 341.664 432.009 344.513 429.247 346.263C428.912 346.474 429.26 346.982 429.594 346.77C434.4 343.727 435.905 337.766 439.927 333.966C441.804 332.193 444.226 330.975 446.861 331.363C449.166 331.703 451.188 332.996 453.233 334.023C455.318 335.139 457.644 335.727 460.009 335.736C462.489 335.644 464.935 335.13 467.243 334.216C472.471 332.241 477.356 329.456 481.72 325.963C486.723 322.004 491.011 317.217 494.401 311.81C494.611 311.476 494.053 311.215 493.845 311.548H493.845Z" fill="#001E69"/>
<path d="M471.47 332.093C472.442 333.791 473.985 335.088 475.824 335.753C477.664 336.417 479.679 336.406 481.511 335.721C481.881 335.581 481.681 334.999 481.31 335.139C479.606 335.78 477.728 335.79 476.017 335.168C474.306 334.546 472.873 333.332 471.977 331.745C471.782 331.4 471.276 331.75 471.47 332.093Z" fill="#001E69"/>
<path d="M454.727 334.241C455.741 330.372 458.174 327.026 461.543 324.873C461.877 324.66 461.529 324.152 461.195 324.365C457.694 326.613 455.169 330.099 454.123 334.128C454.023 334.512 454.628 334.623 454.727 334.241Z" fill="#001E69"/>
<path d="M486.004 321.617C485.491 321.038 485.13 320.341 484.953 319.588C484.776 318.836 484.789 318.05 484.99 317.304C485.094 316.921 484.489 316.811 484.385 317.191C484.167 318.017 484.154 318.884 484.348 319.716C484.542 320.548 484.936 321.321 485.497 321.965C485.545 322.03 485.616 322.075 485.695 322.09C485.774 322.104 485.856 322.088 485.924 322.045C485.991 321.998 486.037 321.927 486.052 321.847C486.067 321.767 486.05 321.685 486.004 321.617Z" fill="#001E69"/>
<path d="M518.937 238.287L498.273 273.087L499.058 273.502L492.06 286.779L490.604 286.007L486.005 293.746L487.148 294.404L479.65 307.395L478.351 306.645L410.924 420.208C409.156 423.18 406.282 425.328 402.932 426.182C399.583 427.035 396.032 426.524 393.059 424.76L267.709 350.221C264.739 348.451 262.592 345.575 261.74 342.223C260.887 338.871 261.398 335.317 263.161 332.341L371.174 150.42C372.942 147.449 375.816 145.3 379.166 144.447C382.515 143.593 386.066 144.105 389.039 145.868L514.388 220.408C517.357 222.178 519.503 225.055 520.356 228.406C521.208 231.758 520.698 235.311 518.937 238.287Z" fill="#2E57D5"/>
<path d="M397.526 417.737L271.735 342.936C270.82 342.39 270.159 341.504 269.896 340.471C269.633 339.437 269.79 338.342 270.333 337.425L379.063 154.294C379.608 153.378 380.494 152.716 381.526 152.453C382.559 152.19 383.653 152.347 384.57 152.891L510.361 227.692C511.276 228.237 511.938 229.124 512.2 230.157C512.463 231.19 512.306 232.286 511.763 233.203L403.033 416.334C402.488 417.25 401.602 417.912 400.57 418.175C399.537 418.438 398.443 418.281 397.526 417.737Z" fill="#001E69"/>
<path d="M449.198 187.397C449.81 187.397 450.307 186.9 450.307 186.287C450.307 185.674 449.81 185.177 449.198 185.177C448.585 185.177 448.089 185.674 448.089 186.287C448.089 186.9 448.585 187.397 449.198 187.397Z" fill="#001E69"/>
<path d="M442.335 318.581L337.331 256.141C337.002 255.946 336.714 255.689 336.484 255.383C336.254 255.078 336.087 254.73 335.992 254.359C335.897 253.989 335.876 253.603 335.93 253.224C335.985 252.846 336.113 252.482 336.308 252.153C336.504 251.824 336.762 251.537 337.068 251.308C337.374 251.079 337.723 250.914 338.094 250.82C338.464 250.726 338.85 250.707 339.228 250.763C339.606 250.818 339.969 250.948 340.297 251.145L445.301 313.585C445.63 313.779 445.918 314.036 446.148 314.342C446.378 314.648 446.545 314.996 446.64 315.366C446.735 315.737 446.756 316.123 446.702 316.501C446.647 316.88 446.519 317.244 446.324 317.573C446.128 317.902 445.87 318.189 445.564 318.417C445.258 318.646 444.909 318.812 444.539 318.906C444.168 318.999 443.783 319.019 443.404 318.963C443.026 318.907 442.663 318.777 442.335 318.581H442.335Z" fill="#FDA33A"/>
<path d="M400.408 308.906L365.869 288.367C365.541 288.172 365.255 287.915 365.026 287.609C364.798 287.304 364.632 286.956 364.538 286.586C364.444 286.216 364.423 285.832 364.478 285.454C364.532 285.076 364.661 284.713 364.855 284.385C365.05 284.057 365.308 283.77 365.613 283.542C365.918 283.313 366.266 283.147 366.635 283.053C367.005 282.959 367.389 282.939 367.767 282.993C368.144 283.048 368.507 283.176 368.835 283.371L403.374 303.91C403.702 304.105 403.988 304.362 404.216 304.668C404.444 304.973 404.61 305.321 404.704 305.691C404.798 306.061 404.819 306.445 404.764 306.823C404.71 307.201 404.581 307.564 404.387 307.892C404.192 308.22 403.935 308.506 403.629 308.735C403.324 308.963 402.976 309.129 402.607 309.224C402.237 309.318 401.853 309.338 401.476 309.283C401.098 309.229 400.735 309.101 400.408 308.906Z" fill="#FDA33A"/>
<path d="M386.828 331.778L352.289 311.239C351.628 310.846 351.149 310.205 350.959 309.458C350.769 308.711 350.884 307.92 351.277 307.257C351.67 306.595 352.31 306.116 353.056 305.926C353.803 305.736 354.594 305.85 355.256 306.243L389.794 326.782C390.122 326.977 390.408 327.234 390.637 327.54C390.865 327.845 391.031 328.193 391.125 328.563C391.219 328.933 391.239 329.317 391.185 329.695C391.13 330.073 391.002 330.436 390.807 330.764C390.612 331.092 390.355 331.378 390.05 331.607C389.744 331.835 389.397 332.001 389.027 332.095C388.658 332.19 388.273 332.21 387.896 332.155C387.519 332.101 387.156 331.972 386.828 331.778Z" fill="#FDA33A"/>
<path d="M379.873 343.492L345.334 322.954C345.005 322.759 344.718 322.502 344.489 322.196C344.26 321.891 344.093 321.543 343.998 321.173C343.904 320.802 343.883 320.417 343.937 320.039C343.992 319.661 344.12 319.297 344.315 318.968C344.51 318.64 344.768 318.353 345.074 318.124C345.38 317.896 345.728 317.73 346.098 317.636C346.468 317.542 346.853 317.522 347.231 317.577C347.609 317.633 347.972 317.762 348.3 317.958L382.839 338.496C383.168 338.691 383.456 338.948 383.686 339.253C383.916 339.559 384.083 339.907 384.178 340.278C384.273 340.648 384.294 341.034 384.24 341.413C384.185 341.791 384.057 342.156 383.862 342.484C383.666 342.813 383.408 343.1 383.102 343.329C382.795 343.558 382.447 343.724 382.076 343.817C381.706 343.911 381.32 343.931 380.942 343.875C380.564 343.819 380.2 343.689 379.873 343.492V343.492Z" fill="#FDA33A"/>
<path d="M413.084 331.7L339.804 288.124C339.145 287.729 338.67 287.089 338.482 286.343C338.294 285.598 338.409 284.809 338.801 284.148C339.193 283.487 339.831 283.009 340.575 282.818C341.319 282.627 342.108 282.739 342.77 283.129L416.05 326.704C416.379 326.898 416.667 327.155 416.897 327.461C417.127 327.767 417.294 328.115 417.389 328.485C417.484 328.856 417.505 329.242 417.451 329.62C417.396 329.999 417.268 330.363 417.073 330.692C416.877 331.021 416.619 331.308 416.313 331.537C416.006 331.765 415.658 331.931 415.287 332.025C414.917 332.119 414.531 332.138 414.153 332.082C413.775 332.026 413.411 331.896 413.084 331.7Z" fill="#FDA33A"/>
<path d="M399.116 387.389L386.576 379.932C385.452 379.261 384.639 378.172 384.317 376.903C383.995 375.634 384.19 374.289 384.858 373.163C385.526 372.037 386.614 371.223 387.882 370.899C389.149 370.576 390.494 370.769 391.619 371.436L404.16 378.894C405.286 379.563 406.1 380.653 406.423 381.923C406.746 383.192 406.551 384.539 405.883 385.665C405.214 386.792 404.125 387.606 402.856 387.929C401.587 388.253 400.242 388.058 399.116 387.389Z" fill="#5179F9"/>
<path d="M422.514 266.308C436.711 266.308 448.22 254.79 448.22 240.583C448.22 226.375 436.711 214.857 422.514 214.857C408.318 214.857 396.809 226.375 396.809 240.583C396.809 254.79 408.318 266.308 422.514 266.308Z" fill="#5179F9"/>
<path d="M1.06421 345.121H348.93V143.572C348.928 142.062 348.328 140.614 347.261 139.546C346.194 138.478 344.747 137.878 343.238 137.876H6.75581C5.24685 137.878 3.80018 138.478 2.73317 139.546C1.66616 140.614 1.06595 142.062 1.06421 143.572V345.121Z" fill="#627AF4"/>
<path d="M338.182 145.754H11.812V331.184H338.182V145.754Z" fill="#001E69"/>
<path d="M0.761475 339.667V364.539C0.761463 365.57 0.96438 366.591 1.35864 367.544C1.7529 368.496 2.33078 369.362 3.05928 370.091C3.78779 370.82 4.65266 371.398 5.60451 371.793C6.55635 372.187 7.57653 372.39 8.6068 372.39H137.001V421.475H135.296C135.162 421.475 135.029 421.501 134.906 421.552C134.782 421.604 134.67 421.679 134.575 421.774C134.48 421.868 134.405 421.981 134.354 422.104C134.303 422.228 134.277 422.361 134.277 422.495V425.909C134.277 426.043 134.303 426.175 134.354 426.299C134.405 426.423 134.48 426.535 134.575 426.63C134.67 426.725 134.782 426.8 134.906 426.851C135.029 426.902 135.162 426.929 135.296 426.929H215.001C215.135 426.929 215.268 426.902 215.391 426.851C215.515 426.8 215.627 426.725 215.722 426.63C215.817 426.535 215.892 426.423 215.943 426.299C215.994 426.175 216.021 426.043 216.021 425.909V422.495C216.021 422.361 215.994 422.228 215.943 422.104C215.892 421.981 215.817 421.868 215.722 421.774C215.627 421.679 215.515 421.604 215.391 421.552C215.268 421.501 215.135 421.475 215.001 421.475H213.296V372.39H341.69C342.721 372.39 343.741 372.187 344.693 371.793C345.644 371.398 346.509 370.82 347.238 370.091C347.966 369.362 348.544 368.496 348.938 367.544C349.333 366.591 349.536 365.57 349.536 364.539V339.668L0.761475 339.667Z" fill="#2E57D5"/>
<path d="M290.956 207.769H136.4C135.425 207.769 134.491 207.381 133.802 206.692C133.113 206.002 132.726 205.067 132.726 204.092C132.726 203.117 133.113 202.182 133.802 201.492C134.491 200.803 135.425 200.416 136.4 200.416H290.956C291.931 200.416 292.865 200.803 293.554 201.492C294.243 202.182 294.63 203.117 294.63 204.092C294.63 205.067 294.243 206.002 293.554 206.692C292.865 207.381 291.931 207.769 290.956 207.769Z" fill="#FDA33A"/>
<path d="M239.097 224.365H188.259C187.285 224.365 186.35 223.978 185.661 223.288C184.972 222.599 184.585 221.664 184.585 220.688C184.585 219.713 184.972 218.778 185.661 218.089C186.35 217.399 187.285 217.012 188.259 217.012H239.097C240.071 217.012 241.006 217.399 241.695 218.089C242.384 218.778 242.771 219.713 242.771 220.688C242.771 221.664 242.384 222.599 241.695 223.288C241.006 223.978 240.071 224.365 239.097 224.365Z" fill="#FDA33A"/>
<path d="M239.097 258.031H188.259C187.285 258.031 186.35 257.643 185.661 256.954C184.972 256.264 184.585 255.329 184.585 254.354C184.585 253.379 184.972 252.444 185.661 251.754C186.35 251.065 187.285 250.677 188.259 250.677H239.097C240.071 250.677 241.006 251.065 241.695 251.754C242.384 252.444 242.771 253.379 242.771 254.354C242.771 255.329 242.384 256.264 241.695 256.954C241.006 257.643 240.071 258.031 239.097 258.031Z" fill="#FDA33A"/>
<path d="M239.097 275.274H188.259C187.776 275.274 187.299 275.179 186.853 274.994C186.407 274.809 186.002 274.538 185.661 274.197C185.32 273.856 185.049 273.45 184.865 273.004C184.68 272.558 184.585 272.08 184.585 271.597C184.585 271.114 184.68 270.636 184.865 270.19C185.049 269.744 185.32 269.339 185.661 268.998C186.002 268.656 186.407 268.385 186.853 268.201C187.299 268.016 187.776 267.921 188.259 267.921H239.097C239.579 267.921 240.057 268.016 240.503 268.201C240.948 268.385 241.353 268.656 241.695 268.998C242.036 269.339 242.306 269.744 242.491 270.19C242.676 270.636 242.771 271.114 242.771 271.597C242.771 272.08 242.676 272.558 242.491 273.004C242.306 273.45 242.036 273.856 241.695 274.197C241.353 274.538 240.948 274.809 240.503 274.994C240.057 275.179 239.579 275.274 239.097 275.274Z" fill="#FDA33A"/>
<path d="M267.608 240.962H159.747C158.773 240.962 157.839 240.574 157.15 239.885C156.461 239.195 156.074 238.26 156.074 237.285C156.074 236.31 156.461 235.375 157.15 234.685C157.839 233.996 158.773 233.609 159.747 233.609H267.608C268.583 233.609 269.517 233.996 270.206 234.685C270.895 235.375 271.282 236.31 271.282 237.285C271.282 238.26 270.895 239.195 270.206 239.885C269.517 240.574 268.583 240.962 267.608 240.962Z" fill="#FDA33A"/>
<path d="M288.383 310.578H269.924C268.267 310.578 266.678 309.92 265.507 308.747C264.335 307.575 263.677 305.984 263.677 304.326C263.677 302.668 264.335 301.078 265.507 299.905C266.678 298.733 268.267 298.074 269.924 298.074H288.383C290.04 298.074 291.629 298.733 292.8 299.905C293.972 301.078 294.63 302.668 294.63 304.326C294.63 305.984 293.972 307.575 292.8 308.747C291.629 309.92 290.04 310.578 288.383 310.578Z" fill="#5179F9"/>
<path d="M87.7988 265.202C105.545 265.202 119.931 250.805 119.931 233.045C119.931 215.285 105.545 200.888 87.7988 200.888C70.053 200.888 55.6671 215.285 55.6671 233.045C55.6671 250.805 70.053 265.202 87.7988 265.202Z" fill="#5179F9"/>
<path d="M463.805 428.255H1.61165C1.38659 428.254 1.17098 428.164 1.01207 428.005C0.853158 427.845 0.763916 427.629 0.763916 427.404C0.763916 427.179 0.853158 426.963 1.01207 426.803C1.17098 426.644 1.38659 426.554 1.61165 426.553H463.805C464.03 426.554 464.245 426.644 464.404 426.803C464.563 426.963 464.652 427.179 464.652 427.404C464.652 427.629 464.563 427.845 464.404 428.005C464.245 428.164 464.03 428.254 463.805 428.255Z" fill="#627AF4"/>
<path d="M174.846 141.815C175.515 141.815 176.057 141.272 176.057 140.603C176.057 139.933 175.515 139.391 174.846 139.391C174.177 139.391 173.635 139.933 173.635 140.603C173.635 141.272 174.177 141.815 174.846 141.815Z" fill="#001E69"/>
</svg>
