<svg width="543" height="490" viewBox="0 0 543 490" fill="none" xmlns="http://www.w3.org/2000/svg">
<g clip-path="url(#clip0_23_234)">
<path d="M103.734 334.098C103.042 334.426 102.266 334.533 101.511 334.404C100.756 334.276 100.059 333.918 99.514 333.38C98.969 332.842 98.6026 332.149 98.4644 331.396C98.3261 330.642 98.4227 329.864 98.7411 329.168C98.6836 328.786 98.6423 328.512 98.5849 328.13C98.5224 328.068 98.4597 328.006 98.3969 327.944C92.0634 321.703 81.3339 326.25 81.3545 335.143C81.3727 343.036 80.6331 351.26 82.7289 358.738C83.6567 362.042 85.1505 365.161 87.144 367.955C74.6096 356.388 64.7081 342.26 58.1106 326.529C56.4592 322.579 55.0297 318.541 53.829 314.432C52.8476 311.062 52.0163 307.657 51.3351 304.215C47.6593 285.535 48.4655 266.248 53.6876 247.939C57.7815 242.828 60.2108 236.583 60.6479 230.048C60.8126 227.696 60.6361 225.332 60.1238 223.03C59.5584 223.358 58.9708 223.662 58.389 223.951C58.2067 224.039 58.0147 224.131 57.8324 224.218L57.7635 224.251C57.1183 224.555 56.399 224.667 55.692 224.571C54.9851 224.476 54.3207 224.179 53.7788 223.715C53.237 223.251 52.8408 222.64 52.6379 221.956C52.435 221.272 52.4341 220.544 52.6353 219.859C52.7607 219.433 52.8864 219.007 53.0123 218.581C53.1997 217.927 53.4009 217.278 53.5883 216.624C53.6141 216.558 53.6361 216.491 53.6543 216.423C53.8718 215.675 54.0933 214.937 54.3109 214.189C52.9533 213.255 51.3983 212.647 49.7672 212.413C44.1395 211.654 38.6686 216.096 37.1118 221.553C35.5453 227.013 37.3251 233.011 40.598 237.646C43.3969 241.616 47.1914 244.743 51.1689 247.563C51.0548 247.98 50.9269 248.39 50.8129 248.807C48.7394 256.446 47.4194 264.27 46.8716 272.166C44.613 264.52 40.5723 257.52 35.0817 251.742C29.7511 246.446 22.522 243.13 15.8271 239.424C7.78545 234.973 -1.79361 242.387 0.801827 251.207C0.826961 251.293 0.852291 251.378 0.877823 251.463C1.68204 251.558 2.48194 251.682 3.2775 251.833C4.27915 252.029 5.19824 252.524 5.91438 253.251C6.63052 253.979 7.11028 254.905 7.29081 255.91C7.47135 256.915 7.34423 257.951 6.92611 258.883C6.508 259.814 5.81841 260.597 4.94766 261.13L4.85849 261.185C6.07052 263.434 7.45174 265.588 8.99019 267.628C13.347 273.297 18.8275 278.004 25.0882 281.455C31.3488 284.906 38.2546 287.026 45.3726 287.682C45.8371 287.718 46.2918 287.758 46.7521 287.785C47.3585 298.488 49.3535 309.066 52.687 319.254C54.6723 325.257 57.1396 331.089 60.0648 336.694L59.9493 336.5C55.9937 330.562 50.1106 326.17 43.2934 324.068C33.206 321.037 21.6474 323.2 11.4739 321.626C6.5767 320.869 2.86845 326.044 5.43853 330.282C5.47955 330.35 5.52075 330.417 5.56214 330.485C6.97536 330.472 8.38799 330.547 9.79186 330.71C10.5961 330.805 11.396 330.929 12.1915 331.081C13.1932 331.277 14.1123 331.771 14.8285 332.498C15.5446 333.226 16.0244 334.153 16.2049 335.158C16.3854 336.162 16.2583 337.199 15.8402 338.13C15.4221 339.061 14.7325 339.845 13.8617 340.377L13.7725 340.432C13.7079 340.47 13.6532 340.505 13.5887 340.543C17.7112 344.609 22.5025 347.935 27.7529 350.375C34.1979 353.291 41.1704 354.86 48.2429 354.985C55.3154 355.109 62.3388 353.788 68.8826 351.101L68.8924 351.097C73.8814 358.057 79.58 364.481 85.8964 370.263L113.258 358.824C113.229 358.479 113.186 358.128 113.148 357.787C110.681 359.005 108.076 359.917 105.388 360.501C106.377 357.16 107.358 353.8 108.347 350.459C108.373 350.394 108.395 350.327 108.413 350.259C108.91 348.553 109.421 346.853 109.918 345.147L109.918 345.145C108.339 341.213 106.261 337.5 103.735 334.098L103.734 334.098ZM46.6426 285.537L46.6489 285.512L46.6508 285.557L46.6426 285.537ZM63.4145 342.727L62.9578 342.296C62.8078 341.909 62.6479 341.526 62.4742 341.138C62.4291 341.03 62.3644 340.93 62.3193 340.822C62.6903 341.462 63.0516 342.106 63.4324 342.742L63.4145 342.727Z" fill="#FF4CA6"/>
<path d="M354.822 145.994C353.802 150.107 353.316 154.334 353.375 158.572L353.376 158.573C354.492 159.955 355.619 161.327 356.735 162.709C356.778 162.765 356.824 162.818 356.873 162.869C359.073 165.57 361.273 168.292 363.474 170.993C360.769 171.49 358.013 171.654 355.268 171.482C355.364 171.811 355.459 172.151 355.566 172.481H385.221C388.82 164.71 391.602 156.585 393.522 148.238H393.533C400.606 148.193 407.596 146.703 414.073 143.86C420.551 141.017 426.379 136.88 431.202 131.704C435.106 127.427 438.245 122.51 440.481 117.168C440.407 117.158 440.343 117.147 440.269 117.136L440.165 117.121C439.157 116.965 438.218 116.508 437.474 115.81C436.729 115.112 436.212 114.205 435.991 113.208C435.771 112.211 435.856 111.171 436.236 110.224C436.617 109.276 437.274 108.466 438.123 107.898C438.798 107.452 439.488 107.029 440.194 106.631C441.427 105.939 442.701 105.325 444.01 104.792C444.022 104.713 444.034 104.635 444.046 104.557C444.784 99.6548 439.368 96.3106 435.141 98.8985C426.361 104.274 414.862 106.737 406.723 113.426C401.244 117.995 397.508 124.316 396.147 131.321L396.115 131.544C396.654 125.244 396.682 118.911 396.201 112.607C395.349 101.921 393.113 91.391 389.547 81.2821C389.961 81.08 390.365 80.8674 390.78 80.6548C397.094 77.304 402.649 72.6843 407.096 67.0854C411.542 61.4864 414.784 55.029 416.619 48.1178C417.252 45.6422 417.696 43.122 417.948 40.579L417.844 40.563C416.836 40.4075 415.897 39.9507 415.153 39.2526C414.408 38.5545 413.891 37.6476 413.67 36.6508C413.45 35.6539 413.535 34.6136 413.915 33.6662C414.296 32.7187 414.953 31.9083 415.802 31.3411C416.477 30.8945 417.167 30.472 417.873 30.0736C417.864 29.9851 417.854 29.8966 417.845 29.8082C416.84 20.6692 405.144 17.5229 399.44 24.7322C394.691 30.7343 389.299 36.5816 386.422 43.5244C383.583 50.974 382.553 58.9914 383.416 66.9171C379.867 59.8424 375.633 53.1328 370.776 46.8844C370.51 46.5441 370.234 46.2144 369.968 45.8742C372.551 41.738 374.847 37.3891 375.899 32.6468C377.132 27.107 376.462 20.8866 372.912 16.4528C369.373 12.0188 362.613 10.0305 357.713 12.9014C356.298 13.7467 355.098 14.9075 354.205 16.2932C354.694 16.8993 355.183 17.4947 355.672 18.1008C355.715 18.1566 355.761 18.2099 355.81 18.2604C356.235 18.792 356.671 19.313 357.096 19.8447C357.377 20.1889 357.657 20.5334 357.937 20.8781C358.386 21.4321 358.666 22.1044 358.742 22.8138C358.819 23.5233 358.689 24.2397 358.368 24.8769C358.046 25.514 357.548 26.0448 356.933 26.4052C356.317 26.7656 355.61 26.9404 354.898 26.9084L354.822 26.905C354.62 26.8943 354.407 26.8836 354.205 26.8731C353.557 26.8306 352.898 26.7774 352.249 26.6924C352.664 29.0138 353.412 31.2629 354.471 33.3699C357.393 39.2312 362.041 44.0555 367.789 47.1928C379.664 62.0713 387.842 79.5556 391.651 98.2098C392.353 101.644 392.898 105.107 393.288 108.598C393.764 112.853 394.002 117.13 394 121.411C393.977 138.47 390.286 155.325 383.18 170.833C383.942 167.486 384.118 164.033 383.701 160.625C382.752 152.918 378.9 145.615 375.874 138.325C372.465 130.112 360.813 130.055 357.375 138.257C357.341 138.338 357.307 138.419 357.273 138.501C357.367 138.875 357.435 139.144 357.529 139.519C358.091 140.039 358.48 140.719 358.643 141.467C358.806 142.216 358.735 142.996 358.439 143.703C358.144 144.41 357.639 145.009 356.992 145.418C356.345 145.828 355.587 146.029 354.822 145.994L354.822 145.994ZM388.781 79.1873L388.766 79.145L388.781 79.1661V79.1873ZM395.34 138.424C395.446 137.69 395.531 136.956 395.627 136.223C395.627 136.34 395.605 136.457 395.605 136.574C395.595 136.999 395.595 137.414 395.605 137.828L395.35 138.402L395.34 138.424Z" fill="#FF4CA6"/>
<path d="M324.945 328.8H234.219C232.935 328.802 231.705 329.313 230.799 330.222C229.892 331.131 229.384 332.363 229.385 333.647V477.02H329.791V333.647C329.791 333.011 329.666 332.38 329.422 331.792C329.179 331.203 328.822 330.669 328.372 330.219C327.922 329.769 327.388 329.411 326.799 329.168C326.211 328.924 325.581 328.799 324.945 328.8ZM279.887 410.262C277.05 410.249 274.332 409.116 272.326 407.109C270.32 405.102 269.187 402.384 269.174 399.545V383.008C269.174 380.166 270.302 377.44 272.311 375.43C274.321 373.42 277.046 372.291 279.887 372.291C282.728 372.291 285.453 373.42 287.462 375.43C289.471 377.44 290.6 380.166 290.6 383.008V399.545C290.587 402.384 289.454 405.102 287.448 407.109C285.441 409.116 282.724 410.249 279.887 410.262Z" fill="#2E57D5"/>
<path d="M229.074 472.434V486.267C229.075 486.984 229.361 487.671 229.867 488.178C230.374 488.684 231.061 488.97 231.777 488.971H327.399C328.115 488.968 328.8 488.682 329.306 488.175C329.812 487.669 330.098 486.983 330.102 486.267V472.434L229.074 472.434Z" fill="#001B5F"/>
<path d="M475.179 105.05H87.3605C84.0285 105.055 80.8346 106.382 78.4785 108.739C76.1224 111.095 74.7965 114.291 74.7911 117.624V379.421C74.7943 382.755 76.1196 385.952 78.4762 388.309C80.8327 390.666 84.0279 391.992 87.3605 391.995H475.179C478.511 391.992 481.707 390.666 484.063 388.309C486.42 385.952 487.745 382.755 487.748 379.421V117.624C487.743 114.291 486.417 111.095 484.061 108.739C481.705 106.382 478.511 105.055 475.179 105.05Z" fill="#2E57D5"/>
<path d="M471.94 114.128H90.602C88.8175 114.133 87.1074 114.845 85.847 116.108C84.5866 117.372 83.8787 119.085 83.8787 120.87V376.176C83.8807 377.959 84.5897 379.669 85.8501 380.93C87.1106 382.191 88.8195 382.9 90.602 382.902H471.94C473.723 382.9 475.432 382.191 476.692 380.93C477.952 379.669 478.661 377.959 478.664 376.176V120.87C478.663 119.085 477.956 117.372 476.695 116.108C475.435 114.845 473.725 114.133 471.94 114.128Z" fill="#001B5F"/>
<path d="M132.428 368.266C132.437 373.263 131.547 378.221 129.801 382.903H90.6007C88.8189 382.9 87.1109 382.191 85.8509 380.931C84.5909 379.67 83.8817 377.961 83.8787 376.179V326.856C86.0689 326.502 88.2841 326.324 90.5029 326.325C96.0087 326.325 101.461 327.409 106.548 329.517C111.634 331.625 116.256 334.714 120.15 338.609C124.043 342.503 127.131 347.127 129.238 352.216C131.345 357.304 132.429 362.758 132.428 368.266Z" fill="#2E57D5"/>
<path d="M478.664 120.87V343.089C449.322 351.645 417.993 350.404 389.419 339.555C360.846 328.706 336.584 308.84 320.306 282.963C304.029 257.086 296.622 226.609 299.208 196.145C301.794 165.681 314.232 136.889 334.638 114.128H471.94C473.725 114.133 475.435 114.845 476.695 116.108C477.956 117.372 478.663 119.085 478.664 120.87Z" fill="#001E69"/>
<path d="M452.772 149.308H95.9532C95.5821 149.3 95.2288 149.147 94.9692 148.881C94.7095 148.616 94.5641 148.259 94.5641 147.888C94.5641 147.517 94.7095 147.16 94.9692 146.895C95.2288 146.63 95.5821 146.477 95.9532 146.469H452.772C453.143 146.477 453.497 146.63 453.756 146.895C454.016 147.16 454.161 147.517 454.161 147.888C454.161 148.259 454.016 148.616 453.756 148.881C453.497 149.147 453.143 149.3 452.772 149.308Z" fill="#2E57D5"/>
<path d="M120.242 139.221C124.835 139.221 128.558 135.414 128.558 130.717C128.558 126.02 124.835 122.212 120.242 122.212C115.65 122.212 111.926 126.02 111.926 130.717C111.926 135.414 115.65 139.221 120.242 139.221Z" fill="#FFC979"/>
<path d="M148.97 139.221C153.562 139.221 157.285 135.414 157.285 130.717C157.285 126.02 153.562 122.212 148.97 122.212C144.377 122.212 140.654 126.02 140.654 130.717C140.654 135.414 144.377 139.221 148.97 139.221Z" fill="#FFC979"/>
<path d="M177.697 139.221C182.29 139.221 186.013 135.414 186.013 130.717C186.013 126.02 182.29 122.212 177.697 122.212C173.104 122.212 169.381 126.02 169.381 130.717C169.381 135.414 173.104 139.221 177.697 139.221Z" fill="#FFC979"/>
<path d="M435.476 124.32H415.069C414.665 124.328 414.28 124.495 413.997 124.784C413.713 125.073 413.555 125.461 413.555 125.866C413.555 126.271 413.713 126.659 413.997 126.948C414.28 127.237 414.665 127.404 415.069 127.412H435.476C435.88 127.404 436.266 127.237 436.549 126.948C436.832 126.659 436.991 126.271 436.991 125.866C436.991 125.461 436.832 125.073 436.549 124.784C436.266 124.495 435.88 124.328 435.476 124.32Z" fill="#FFC979"/>
<path d="M435.476 130.122H415.069C414.665 130.131 414.28 130.297 413.997 130.586C413.713 130.875 413.555 131.263 413.555 131.668C413.555 132.073 413.713 132.461 413.997 132.75C414.28 133.039 414.665 133.206 415.069 133.214H435.476C435.88 133.206 436.266 133.039 436.549 132.75C436.832 132.461 436.991 132.073 436.991 131.668C436.991 131.263 436.832 130.875 436.549 130.586C436.266 130.297 435.88 130.131 435.476 130.122Z" fill="#FFC979"/>
<path d="M435.476 135.917H415.069C414.665 135.925 414.28 136.091 413.997 136.38C413.713 136.669 413.555 137.058 413.555 137.463C413.555 137.867 413.713 138.256 413.997 138.545C414.28 138.834 414.665 139 415.069 139.008H435.476C435.88 139 436.266 138.834 436.549 138.545C436.832 138.256 436.991 137.867 436.991 137.463C436.991 137.058 436.832 136.669 436.549 136.38C436.266 136.091 435.88 135.925 435.476 135.917Z" fill="#FFC979"/>
<path d="M245.406 51.1565C246.662 48.506 240.839 43.1112 232.399 39.1069C223.959 35.1025 216.099 34.0049 214.842 36.6554C213.586 39.3059 219.409 44.7008 227.849 48.7051C236.288 52.7095 244.149 53.807 245.406 51.1565Z" fill="#FDA33A"/>
<path d="M315.061 78.4561C317.309 76.5729 314.27 69.2381 308.274 62.0734C302.277 54.9087 295.593 50.6272 293.345 52.5104C291.097 54.3936 294.135 61.7284 300.132 68.8931C306.128 76.0578 312.812 80.3393 315.061 78.4561Z" fill="#FDA33A"/>
<path d="M268.224 93.4468C286.906 93.4468 302.051 78.2965 302.051 59.6077C302.051 40.9188 286.906 25.7685 268.224 25.7685C249.542 25.7685 234.397 40.9188 234.397 59.6077C234.397 78.2965 249.542 93.4468 268.224 93.4468Z" fill="#FDA33A"/>
<path d="M282.542 86.1649H272.265V104.584H282.542V86.1649Z" fill="#FDA33A"/>
<path d="M261.989 86.1649H251.712V104.584H261.989V86.1649Z" fill="#FDA33A"/>
<path d="M273.978 108.01C278.708 108.01 282.542 106.572 282.542 104.798C282.542 103.024 278.708 101.585 273.978 101.585C269.248 101.585 265.414 103.024 265.414 104.798C265.414 106.572 269.248 108.01 273.978 108.01Z" fill="#FDA33A"/>
<path d="M253.425 107.582C258.155 107.582 261.989 106.144 261.989 104.369C261.989 102.595 258.155 101.157 253.425 101.157C248.695 101.157 244.861 102.595 244.861 104.369C244.861 106.144 248.695 107.582 253.425 107.582Z" fill="#FDA33A"/>
<path d="M257.603 17.0708C260.623 4.90225 273.956 -2.25868 287.382 1.07642C300.809 4.41151 309.244 16.9798 306.224 29.1484C303.204 41.3169 293.183 41.3562 279.756 38.0211C266.33 34.6859 254.582 29.2394 257.603 17.0708Z" fill="#2E57D5"/>
<path d="M263.167 63.7493C269.396 63.7493 274.445 58.6982 274.445 52.4673C274.445 46.2364 269.396 41.1853 263.167 41.1853C256.938 41.1853 251.889 46.2364 251.889 52.4673C251.889 58.6982 256.938 63.7493 263.167 63.7493Z" fill="#193DAC"/>
<path d="M262.459 60.827C264.535 60.827 266.218 59.1433 266.218 57.0663C266.218 54.9894 264.535 53.3057 262.459 53.3057C260.383 53.3057 258.7 54.9894 258.7 57.0663C258.7 59.1433 260.383 60.827 262.459 60.827Z" fill="#FFC979"/>
<path d="M277.497 72.8934C278.241 76.9801 268.276 83.9755 264.191 84.7194C262.229 85.0767 260.206 84.6397 258.566 83.5046C256.927 82.3695 255.805 80.6293 255.448 78.6668L255.445 78.6522C254.705 74.5648 257.864 73.1184 261.95 72.3784C266.036 71.6385 276.757 68.8059 277.497 72.8934Z" fill="#193DAC"/>
<path d="M397.32 309.938C403.013 302.53 405.743 295.074 403.418 293.287C401.093 291.499 394.594 296.056 388.901 303.464C383.208 310.873 380.478 318.328 382.803 320.116C385.128 321.904 391.628 317.347 397.32 309.938Z" fill="#FDA33A"/>
<path d="M428.304 334.665C446.986 334.665 462.131 319.515 462.131 300.826C462.131 282.137 446.986 266.987 428.304 266.987C409.622 266.987 394.477 282.137 394.477 300.826C394.477 319.515 409.622 334.665 428.304 334.665Z" fill="#FDA33A"/>
<path d="M443.719 327.383H433.442V345.802H443.719V327.383Z" fill="#FDA33A"/>
<path d="M423.166 327.383H412.889V345.802H423.166V327.383Z" fill="#FDA33A"/>
<path d="M435.155 349.229C439.884 349.229 443.719 347.79 443.719 346.016C443.719 344.242 439.884 342.803 435.155 342.803C430.425 342.803 426.591 344.242 426.591 346.016C426.591 347.79 430.425 349.229 435.155 349.229Z" fill="#FDA33A"/>
<path d="M414.602 348.8C419.332 348.8 423.166 347.362 423.166 345.588C423.166 343.813 419.332 342.375 414.602 342.375C409.872 342.375 406.038 343.813 406.038 345.588C406.038 347.362 409.872 348.8 414.602 348.8Z" fill="#FDA33A"/>
<path d="M427.447 303.824C433.832 303.824 439.009 298.646 439.009 292.259C439.009 285.872 433.832 280.694 427.447 280.694C421.063 280.694 415.886 285.872 415.886 292.259C415.886 298.646 421.063 303.824 427.447 303.824Z" fill="#193DAC"/>
<path d="M426.662 301.614C428.79 301.614 430.516 299.888 430.516 297.759C430.516 295.63 428.79 293.904 426.662 293.904C424.534 293.904 422.808 295.63 422.808 297.759C422.808 299.888 424.534 301.614 426.662 301.614Z" fill="#FFC979"/>
<path d="M461.117 269.356C463.848 257.119 455.117 244.755 441.616 241.739C428.114 238.723 414.955 246.198 412.223 258.435C409.492 270.671 418.44 275.184 431.941 278.2C445.443 281.216 458.386 281.593 461.117 269.356Z" fill="#2E57D5"/>
<path d="M468.286 330.206C470.925 328.926 469.759 321.072 465.683 312.664C461.608 304.256 456.164 298.478 453.526 299.758C450.887 301.038 452.053 308.892 456.129 317.3C460.204 325.707 465.648 331.486 468.286 330.206Z" fill="#FDA33A"/>
<path d="M444.919 313.034C444.919 316.345 436.395 322.885 426.936 322.885C417.476 322.885 408.607 313.561 408.607 310.249C408.607 306.937 417.476 310.892 426.936 310.892C436.395 310.892 444.919 309.722 444.919 313.034Z" fill="#193DAC"/>
<path d="M402.944 448.595C421.626 448.595 436.771 433.445 436.771 414.756C436.771 396.067 421.626 380.917 402.944 380.917C384.262 380.917 369.117 396.067 369.117 414.756C369.117 433.445 384.262 448.595 402.944 448.595Z" fill="#FDA33A"/>
<path d="M397.806 441.313H387.529V459.732H397.806V441.313Z" fill="#FDA33A"/>
<path d="M418.359 441.313H408.082V459.732H418.359V441.313Z" fill="#FDA33A"/>
<path d="M403.051 465.962C403.809 464.357 400.956 461.419 396.679 459.399C392.402 457.378 388.321 457.041 387.564 458.646C386.806 460.25 389.66 463.188 393.936 465.209C398.213 467.229 402.294 467.566 403.051 465.962Z" fill="#FDA33A"/>
<path d="M423.797 465.093C424.463 463.448 421.45 460.675 417.067 458.898C412.683 457.121 408.59 457.013 407.924 458.658C407.258 460.302 410.271 463.076 414.654 464.853C419.038 466.63 423.131 466.737 423.797 465.093Z" fill="#FDA33A"/>
<path d="M370.131 383.287C367.4 371.05 376.131 358.685 389.632 355.669C403.134 352.653 416.293 360.128 419.025 372.365C421.756 384.602 412.808 389.115 399.306 392.131C385.805 395.147 372.862 395.523 370.131 383.287Z" fill="#2E57D5"/>
<path d="M443.154 400.867C446.531 391.064 446.775 382.258 443.699 381.198C440.623 380.137 435.392 387.224 432.015 397.026C428.638 406.828 428.394 415.634 431.47 416.695C434.546 417.755 439.777 410.669 443.154 400.867Z" fill="#FDA33A"/>
<path d="M375.679 411.44C377.98 409.14 373.907 401.329 366.581 393.995C359.256 386.661 351.451 382.58 349.15 384.881C346.848 387.182 350.921 394.992 358.247 402.326C365.573 409.66 373.377 413.741 375.679 411.44Z" fill="#FDA33A"/>
<path d="M146.952 474.694C165.634 474.694 180.779 459.544 180.779 440.855C180.779 422.166 165.634 407.016 146.952 407.016C128.27 407.016 113.125 422.166 113.125 440.855C113.125 459.544 128.27 474.694 146.952 474.694Z" fill="#FDA33A"/>
<path d="M141.814 467.413H131.537V485.831H141.814V467.413Z" fill="#FDA33A"/>
<path d="M162.367 467.413H152.09V485.831H162.367V467.413Z" fill="#FDA33A"/>
<path d="M140.101 489.258C144.831 489.258 148.665 487.82 148.665 486.046C148.665 484.271 144.831 482.833 140.101 482.833C135.371 482.833 131.537 484.271 131.537 486.046C131.537 487.82 135.371 489.258 140.101 489.258Z" fill="#FDA33A"/>
<path d="M160.654 488.83C165.384 488.83 169.218 487.391 169.218 485.617C169.218 483.843 165.384 482.405 160.654 482.405C155.924 482.405 152.09 483.843 152.09 485.617C152.09 487.391 155.924 488.83 160.654 488.83Z" fill="#FDA33A"/>
<path d="M114.139 409.386C111.408 397.149 120.139 384.784 133.64 381.768C147.142 378.753 160.301 386.228 163.033 398.464C165.764 410.701 156.816 415.214 143.314 418.23C129.813 421.246 116.87 421.623 114.139 409.386Z" fill="#2E57D5"/>
<path d="M190.326 449.538C191.848 446.661 185.654 440.399 176.493 435.551C167.332 430.703 158.672 429.105 157.15 431.982C155.629 434.859 161.822 441.121 170.984 445.97C180.145 450.818 188.805 452.415 190.326 449.538Z" fill="#FDA33A"/>
<path d="M142.259 270.784C150.699 266.78 156.522 261.385 155.265 258.735C154.009 256.084 146.148 257.182 137.708 261.186C129.268 265.19 123.445 270.585 124.702 273.236C125.958 275.886 133.819 274.789 142.259 270.784Z" fill="#FDA33A"/>
<path d="M69.9757 290.972C75.9723 283.808 79.0108 276.473 76.7624 274.59C74.5141 272.706 67.8302 276.988 61.8336 284.153C55.837 291.317 52.7985 298.652 55.0469 300.535C57.2953 302.419 63.9792 298.137 69.9757 290.972Z" fill="#FDA33A"/>
<path d="M101.883 315.526C120.565 315.526 135.71 300.376 135.71 281.687C135.71 262.998 120.565 247.848 101.883 247.848C83.2014 247.848 68.0566 262.998 68.0566 281.687C68.0566 300.376 83.2014 315.526 101.883 315.526Z" fill="#FDA33A"/>
<path d="M97.8423 308.244H87.5658V326.663H97.8423V308.244Z" fill="#FDA33A"/>
<path d="M118.395 308.244H108.119V326.663H118.395V308.244Z" fill="#FDA33A"/>
<path d="M96.1295 330.09C100.859 330.09 104.693 328.651 104.693 326.877C104.693 325.103 100.859 323.664 96.1295 323.664C91.3999 323.664 87.5658 325.103 87.5658 326.877C87.5658 328.651 91.3999 330.09 96.1295 330.09Z" fill="#FDA33A"/>
<path d="M116.682 329.661C121.412 329.661 125.246 328.223 125.246 326.449C125.246 324.674 121.412 323.236 116.682 323.236C111.953 323.236 108.119 324.674 108.119 326.449C108.119 328.223 111.953 329.661 116.682 329.661Z" fill="#FDA33A"/>
<path d="M112.505 239.15C109.484 226.981 96.1514 219.821 82.725 223.156C69.2986 226.491 60.8629 239.059 63.8834 251.228C66.9038 263.396 76.9247 263.435 90.3512 260.1C103.778 256.765 115.525 251.319 112.505 239.15Z" fill="#2E57D5"/>
<path d="M106.94 285.828C113.169 285.828 118.218 280.777 118.218 274.547C118.218 268.316 113.169 263.265 106.94 263.265C100.712 263.265 95.6626 268.316 95.6626 274.547C95.6626 280.777 100.712 285.828 106.94 285.828Z" fill="#193DAC"/>
<path d="M107.648 282.906C109.725 282.906 111.408 281.223 111.408 279.146C111.408 277.069 109.725 275.385 107.648 275.385C105.572 275.385 103.889 277.069 103.889 279.146C103.889 281.223 105.572 282.906 107.648 282.906Z" fill="#FFC979"/>
<path d="M99.8657 298.052C99.6889 299.024 99.7051 300.021 99.9135 300.986C100.122 301.952 100.518 302.867 101.08 303.679C101.642 304.491 102.358 305.185 103.188 305.72C104.018 306.255 104.945 306.622 105.916 306.799C106.888 306.976 107.884 306.959 108.849 306.751C109.814 306.542 110.729 306.146 111.541 305.584C112.353 305.022 113.046 304.305 113.581 303.475C114.116 302.645 114.483 301.718 114.66 300.746L114.662 300.731C115.402 296.644 112.243 295.198 108.157 294.458C104.071 293.718 100.605 293.964 99.8657 298.052Z" fill="#193DAC"/>
<path d="M541.434 488.966L17.7425 489.207C17.6195 489.208 17.4975 489.184 17.3838 489.137C17.27 489.09 17.1666 489.021 17.0794 488.934C16.9923 488.848 16.9232 488.744 16.876 488.631C16.8289 488.517 16.8046 488.395 16.8046 488.272C16.8046 488.149 16.8289 488.027 16.876 487.913C16.9232 487.8 16.9923 487.696 17.0794 487.609C17.1666 487.523 17.27 487.454 17.3838 487.407C17.4975 487.36 17.6195 487.336 17.7425 487.336L541.434 487.095C541.681 487.096 541.918 487.195 542.093 487.37C542.268 487.545 542.366 487.783 542.366 488.03C542.366 488.278 542.268 488.516 542.093 488.691C541.918 488.866 541.681 488.965 541.434 488.966Z" fill="#001B5F"/>
</g>
<defs>
<clipPath id="clip0_23_234">
<rect width="542" height="489" fill="white" transform="translate(0.368652 0.258118)"/>
</clipPath>
</defs>
</svg>
