<svg width="769" height="442" viewBox="0 0 769 442" fill="none" xmlns="http://www.w3.org/2000/svg">
<g clip-path="url(#clip0_21_140)">  
<path d="M166.621 392.343C188.708 392.343 206.613 374.432 206.613 352.337C206.613 330.243 188.708 312.332 166.621 312.332C144.534 312.332 126.629 330.243 126.629 352.337C126.629 374.432 144.534 392.343 166.621 392.343Z" fill="#FFAF52"/>
<path d="M173.124 386.489C195.211 386.489 213.116 368.577 213.116 346.483C213.116 324.388 195.211 306.477 173.124 306.477C151.037 306.477 133.132 324.388 133.132 346.483C133.132 368.577 151.037 386.489 173.124 386.489Z" fill="#001E69"/>
<path d="M700.145 302.217H205.332V303.568H700.145V302.217Z" fill="#5179F9"/>
<path d="M461.596 12.5954H285.968V8.97437H206.331V12.5954H29.979C28.4189 12.5954 26.8741 12.9028 25.4328 13.5C23.9915 14.0973 22.6818 14.9726 21.5787 16.0762C20.4755 17.1797 19.6004 18.4897 19.0034 19.9316C18.4064 21.3734 18.0991 22.9187 18.0991 24.4794V265.049C18.0991 268.201 19.3507 271.224 21.5787 273.453C23.8066 275.681 26.8283 276.933 29.979 276.933H461.596C464.747 276.933 467.768 275.681 469.996 273.453C472.224 271.224 473.476 268.201 473.476 265.049V24.4794C473.476 22.9187 473.168 21.3734 472.571 19.9316C471.974 18.4897 471.099 17.1797 469.996 16.0762C468.893 14.9726 467.583 14.0973 466.142 13.5C464.701 12.9028 463.156 12.5954 461.596 12.5954Z" fill="#5179F9"/>
<path d="M457.549 33.5976H34.0266V272.588H457.549V33.5976Z" fill="#001E69"/>
<path d="M245.426 27.0797C247.825 27.0797 249.769 25.1343 249.769 22.7344C249.769 20.3346 247.825 18.3892 245.426 18.3892C243.027 18.3892 241.082 20.3346 241.082 22.7344C241.082 25.1343 243.027 27.0797 245.426 27.0797Z" fill="#001E69"/>
<path opacity="0.1" d="M336.428 272.588H34.0266V33.5979L336.428 272.588Z" fill="black"/>
<path d="M100.295 254.704C122.779 254.704 141.005 236.472 141.005 213.98C141.005 191.489 122.779 173.256 100.295 173.256C77.8113 173.256 59.5847 191.489 59.5847 213.98C59.5847 236.472 77.8113 254.704 100.295 254.704Z" fill="#FFAF52"/>
<path d="M383.806 162.487H344.245V170.756H383.806V162.487Z" fill="#5179F9"/>
<path d="M431.635 98.104H296.417V101.648H431.635V98.104Z" fill="#5179F9"/>
<path d="M431.635 109.327H296.417V112.871H431.635V109.327Z" fill="#5179F9"/>
<path d="M431.635 120.549H296.417V124.093H431.635V120.549Z" fill="#5179F9"/>
<path d="M431.635 131.772H296.417V135.316H431.635V131.772Z" fill="#5179F9"/>
<path d="M431.635 142.995H296.417V146.539H431.635V142.995Z" fill="#5179F9"/>
<path d="M431.635 38.4463H415.101V54.985H431.635V38.4463Z" fill="#FFAF52"/>
<path d="M439.311 62.6638H419.235V42.5809H439.311V62.6638ZM420.108 61.7906H438.438V43.4541H420.108V61.7906Z" fill="#5179F9"/>
<path d="M485.367 268.243H444.034V265.264C444.034 265.186 444.019 265.109 443.99 265.038C443.96 264.966 443.916 264.901 443.862 264.846C443.807 264.791 443.742 264.748 443.67 264.718C443.598 264.688 443.522 264.673 443.444 264.673H429.273C429.195 264.673 429.118 264.688 429.047 264.718C428.975 264.748 428.91 264.791 428.855 264.846C428.8 264.901 428.757 264.966 428.727 265.038C428.697 265.109 428.682 265.186 428.682 265.264V268.243H419.825V265.264C419.825 265.186 419.81 265.109 419.78 265.038C419.751 264.966 419.707 264.901 419.652 264.846C419.597 264.791 419.532 264.748 419.461 264.718C419.389 264.688 419.312 264.673 419.235 264.673H405.063C404.986 264.673 404.909 264.688 404.837 264.718C404.766 264.748 404.701 264.791 404.646 264.846C404.591 264.901 404.547 264.966 404.518 265.038C404.488 265.109 404.473 265.186 404.473 265.264V268.243H395.616V265.264C395.616 265.186 395.601 265.109 395.571 265.038C395.541 264.966 395.498 264.901 395.443 264.846C395.388 264.791 395.323 264.748 395.251 264.718C395.18 264.688 395.103 264.673 395.025 264.673H380.854C380.777 264.673 380.7 264.688 380.628 264.718C380.556 264.748 380.491 264.791 380.437 264.846C380.382 264.901 380.338 264.966 380.309 265.038C380.279 265.109 380.264 265.186 380.264 265.264V268.243H371.406V265.264C371.407 265.186 371.391 265.109 371.362 265.038C371.332 264.966 371.288 264.901 371.234 264.846C371.179 264.791 371.114 264.748 371.042 264.718C370.97 264.688 370.894 264.673 370.816 264.673H356.645C356.567 264.673 356.49 264.688 356.419 264.718C356.347 264.748 356.282 264.791 356.227 264.846C356.172 264.901 356.129 264.966 356.099 265.038C356.069 265.109 356.054 265.186 356.054 265.264V268.243H347.197V265.264C347.197 265.186 347.182 265.109 347.152 265.038C347.123 264.966 347.079 264.901 347.024 264.846C346.969 264.791 346.904 264.748 346.833 264.718C346.761 264.688 346.684 264.673 346.607 264.673H332.435C332.358 264.673 332.281 264.688 332.209 264.718C332.138 264.748 332.073 264.791 332.018 264.846C331.963 264.901 331.92 264.966 331.89 265.038C331.86 265.109 331.845 265.186 331.845 265.264V268.243H322.988V265.264C322.988 265.186 322.973 265.109 322.943 265.038C322.913 264.966 322.87 264.901 322.815 264.846C322.76 264.791 322.695 264.748 322.623 264.718C322.552 264.688 322.475 264.673 322.397 264.673H308.226C308.149 264.673 308.072 264.688 308 264.718C307.928 264.748 307.863 264.791 307.809 264.846C307.754 264.901 307.71 264.966 307.681 265.038C307.651 265.109 307.636 265.186 307.636 265.264V268.243H298.779V265.264C298.779 265.186 298.763 265.109 298.734 265.038C298.704 264.966 298.66 264.901 298.606 264.846C298.551 264.791 298.486 264.748 298.414 264.718C298.342 264.688 298.266 264.673 298.188 264.673H187.179C187.102 264.673 187.025 264.688 186.953 264.718C186.882 264.748 186.817 264.791 186.762 264.846C186.707 264.901 186.664 264.966 186.634 265.038C186.604 265.109 186.589 265.186 186.589 265.264V268.243H177.732V265.264C177.732 265.186 177.717 265.109 177.687 265.038C177.657 264.966 177.614 264.901 177.559 264.846C177.504 264.791 177.439 264.748 177.367 264.718C177.296 264.688 177.219 264.673 177.141 264.673H162.97C162.893 264.673 162.816 264.688 162.744 264.718C162.672 264.748 162.607 264.791 162.553 264.846C162.498 264.901 162.454 264.966 162.425 265.038C162.395 265.109 162.38 265.186 162.38 265.264V268.243H153.523V265.264C153.523 265.186 153.507 265.109 153.478 265.038C153.448 264.966 153.404 264.901 153.35 264.846C153.295 264.791 153.23 264.748 153.158 264.718C153.086 264.688 153.01 264.673 152.932 264.673H138.761C138.683 264.673 138.606 264.688 138.535 264.718C138.463 264.748 138.398 264.791 138.343 264.846C138.288 264.901 138.245 264.966 138.215 265.038C138.186 265.109 138.17 265.186 138.17 265.264V268.243H129.313V265.264C129.313 265.186 129.298 265.109 129.268 265.038C129.239 264.966 129.195 264.901 129.14 264.846C129.085 264.791 129.02 264.748 128.949 264.718C128.877 264.688 128.8 264.673 128.723 264.673H114.551C114.474 264.673 114.397 264.688 114.325 264.718C114.254 264.748 114.189 264.791 114.134 264.846C114.079 264.901 114.036 264.966 114.006 265.038C113.976 265.109 113.961 265.186 113.961 265.264V268.243H105.104V265.264C105.104 265.186 105.089 265.109 105.059 265.038C105.029 264.966 104.986 264.901 104.931 264.846C104.876 264.791 104.811 264.748 104.739 264.718C104.668 264.688 104.591 264.673 104.513 264.673H90.3421C90.2646 264.673 90.1878 264.688 90.1161 264.718C90.0445 264.748 89.9794 264.791 89.9246 264.846C89.8698 264.901 89.8263 264.966 89.7966 265.038C89.7669 265.109 89.7516 265.186 89.7516 265.264V268.243H80.8946V265.264C80.8946 265.186 80.8793 265.109 80.8496 265.038C80.82 264.966 80.7765 264.901 80.7216 264.846C80.6668 264.791 80.6017 264.748 80.5301 264.718C80.4584 264.688 80.3817 264.673 80.3041 264.673H66.1328C66.0552 264.673 65.9785 264.688 65.9068 264.718C65.8352 264.748 65.7701 264.791 65.7153 264.846C65.6604 264.901 65.6169 264.966 65.5873 265.038C65.5576 265.109 65.5423 265.186 65.5423 265.264V268.243H56.6853V265.264C56.6853 265.186 56.67 265.109 56.6403 265.038C56.6106 264.966 56.5671 264.901 56.5123 264.846C56.4575 264.791 56.3924 264.748 56.3208 264.718C56.2491 264.688 56.1723 264.673 56.0948 264.673H41.9235C41.8459 264.673 41.7691 264.688 41.6975 264.718C41.6259 264.748 41.5608 264.791 41.5059 264.846C41.4511 264.901 41.4076 264.966 41.3779 265.038C41.3483 265.109 41.333 265.186 41.333 265.264V268.243H14.1713C10.4128 268.243 6.80832 269.736 4.15069 272.395C1.49305 275.053 3.58069e-06 278.659 0 282.419V288.829C1.07421e-05 292.589 1.49306 296.194 4.1507 298.853C6.80833 301.511 10.4129 303.005 14.1713 303.005H485.367C489.126 303.005 492.73 301.511 495.388 298.853C498.046 296.194 499.539 292.589 499.539 288.829V282.419C499.539 278.659 498.046 275.053 495.388 272.395C492.73 269.736 489.126 268.243 485.367 268.243Z" fill="#5179F9"/>
<path d="M110.149 239.416C100.002 239.416 90.0832 236.406 81.6463 230.767C73.2094 225.128 66.6336 217.112 62.7505 207.735C58.8674 198.357 57.8515 188.038 59.831 178.082C61.8106 168.127 66.6968 158.982 73.8718 151.805C81.0468 144.628 90.1883 139.74 100.14 137.76C110.092 135.779 120.408 136.796 129.782 140.68C139.157 144.564 147.17 151.142 152.807 159.582C158.444 168.022 161.453 177.944 161.453 188.095C161.438 201.701 156.028 214.746 146.41 224.367C136.792 233.989 123.751 239.401 110.149 239.416ZM110.149 138.124C100.269 138.124 90.6112 141.055 82.3963 146.546C74.1815 152.036 67.7787 159.841 63.9979 168.972C60.217 178.103 59.2277 188.15 61.1552 197.844C63.0827 207.537 67.8403 216.441 74.8265 223.429C81.8127 230.418 90.7136 235.177 100.404 237.105C110.094 239.033 120.138 238.044 129.266 234.262C138.394 230.479 146.195 224.075 151.684 215.857C157.173 207.639 160.103 197.978 160.103 188.095C160.088 174.846 154.82 162.145 145.455 152.777C136.09 143.409 123.393 138.139 110.149 138.124Z" fill="#5179F9"/>
<path d="M567.834 21.9758H395.696V23.3264H567.834V21.9758Z" fill="#5179F9"/>
<path d="M769 378.524H274.187V379.874H769V378.524Z" fill="#5179F9"/>
<path d="M302.201 440.649H130.063V442H302.201V440.649Z" fill="#5179F9"/>
<path d="M336.851 371.404H317.95V390.312H336.851V371.404Z" fill="#001E69"/>
<path d="M348.327 379.507H325.375V356.548H348.327V379.507ZM326.373 378.509H347.329V357.546H326.373V378.509Z" fill="#5179F9"/>
<path d="M556.243 14.8562H537.342V33.764H556.243V14.8562Z" fill="#001E69"/>
<path d="M567.719 22.9595H544.767V0H567.719V22.9595ZM545.765 21.9613H566.721V0.998242H545.765V21.9613Z" fill="#5179F9"/>
<path d="M746.608 371.404H727.707V390.312H746.608V371.404Z" fill="#001E69"/>
<path d="M758.084 379.507H735.132V356.548H758.084V379.507ZM736.13 378.509H757.086V357.546H736.13V378.509Z" fill="#5179F9"/>
<path d="M713.646 156.637H712.04V112.634C712.04 109.29 711.382 105.978 710.102 102.888C708.823 99.7986 706.948 96.9911 704.584 94.6263C702.22 92.2614 699.413 90.3855 696.324 89.1056C693.235 87.8258 689.925 87.1671 686.581 87.1671H593.388C590.045 87.1671 586.734 87.8258 583.645 89.1056C580.557 90.3855 577.75 92.2614 575.386 94.6263C573.022 96.9911 571.147 99.7986 569.867 102.888C568.588 105.978 567.929 109.29 567.929 112.634V354.034C567.929 357.379 568.588 360.691 569.867 363.78C571.147 366.87 573.022 369.678 575.386 372.043C577.75 374.408 580.557 376.283 583.645 377.563C586.734 378.843 590.045 379.502 593.388 379.502H686.582C689.925 379.502 693.235 378.843 696.324 377.563C699.413 376.283 702.22 374.407 704.584 372.043C706.948 369.678 708.823 366.87 710.102 363.78C711.382 360.691 712.04 357.379 712.04 354.034V187.958H713.646V156.637Z" fill="#5179F9"/>
<path d="M706.619 114.131V355.179C706.62 360.223 704.617 365.061 701.052 368.629C697.487 372.196 692.652 374.201 687.609 374.202H593.966C588.924 374.201 584.088 372.196 580.523 368.629C576.958 365.061 574.956 360.223 574.957 355.179V114.131C574.957 109.088 576.96 104.252 580.525 100.686C584.09 97.1195 588.925 95.1159 593.966 95.1154H605.327C604.768 96.4873 604.555 97.9757 604.706 99.4495C604.858 100.923 605.369 102.337 606.195 103.567C607.021 104.796 608.137 105.804 609.445 106.5C610.752 107.197 612.21 107.561 613.691 107.561H667.081C668.562 107.561 670.02 107.197 671.327 106.5C672.635 105.804 673.751 104.796 674.577 103.567C675.403 102.337 675.914 100.923 676.066 99.4495C676.217 97.9757 676.004 96.4873 675.445 95.1154H687.609C692.651 95.1159 697.486 97.1196 701.05 100.686C704.615 104.252 706.618 109.088 706.619 114.131Z" fill="#001E69"/>
<path d="M654.736 254.052H626.84V262.322H654.736V254.052Z" fill="#5179F9"/>
<path d="M688.46 189.669H593.115V193.213H688.46V189.669Z" fill="#5179F9"/>
<path d="M688.46 200.892H593.115V204.436H688.46V200.892Z" fill="#5179F9"/>
<path d="M688.46 212.115H593.115V215.659H688.46V212.115Z" fill="#5179F9"/>
<path d="M688.46 223.337H593.115V226.881H688.46V223.337Z" fill="#5179F9"/>
<path d="M688.46 234.56H593.115V238.104H688.46V234.56Z" fill="#5179F9"/>
<path d="M644.118 142.605H627.585V159.144H644.118V142.605Z" fill="#FFAF52"/>
<path d="M633.914 146.741V166.823H653.99V146.741H633.914ZM653.119 165.952H634.785V147.612H653.119V165.952Z" fill="#5179F9"/>
<path opacity="0.1" d="M706.619 329.438V355.179C706.62 360.223 704.617 365.061 701.052 368.629C697.487 372.196 692.652 374.201 687.609 374.202H593.966C588.924 374.201 584.088 372.196 580.523 368.629C576.958 365.061 574.956 360.223 574.957 355.179V225.384L653.85 287.732L655.2 288.799L669.876 300.394L671.246 301.481L706.619 329.438Z" fill="black"/>
<path d="M632.687 366.39C649.042 366.39 662.3 353.127 662.3 336.767C662.3 320.406 649.042 307.144 632.687 307.144C616.332 307.144 603.074 320.406 603.074 336.767C603.074 353.127 616.332 366.39 632.687 366.39Z" fill="#FFAF52"/>
<path d="M216.132 442C204.517 442 193.162 438.554 183.504 432.099C173.846 425.644 166.318 416.468 161.873 405.733C157.428 394.998 156.265 383.186 158.531 371.789C160.797 360.393 166.391 349.925 174.604 341.709C182.818 333.492 193.282 327.897 204.675 325.63C216.067 323.363 227.876 324.527 238.607 328.973C249.339 333.42 258.511 340.95 264.964 350.611C271.418 360.273 274.862 371.631 274.862 383.251C274.844 398.827 268.651 413.759 257.641 424.773C246.631 435.787 231.703 441.982 216.132 442ZM216.132 325.852C204.784 325.852 193.69 329.218 184.254 335.525C174.818 341.832 167.464 350.797 163.121 361.285C158.778 371.773 157.641 383.314 159.855 394.449C162.069 405.583 167.534 415.81 175.559 423.838C183.584 431.865 193.808 437.332 204.938 439.547C216.069 441.761 227.606 440.625 238.091 436.28C248.575 431.936 257.537 424.579 263.842 415.14C270.147 405.701 273.512 394.603 273.512 383.251C273.495 368.033 267.444 353.443 256.687 342.683C245.93 331.922 231.345 325.869 216.132 325.852Z" fill="#5179F9"/>
<path d="M641.415 359.616C634.072 359.616 626.894 357.438 620.788 353.357C614.683 349.276 609.924 343.475 607.114 336.688C604.304 329.902 603.568 322.434 605.001 315.23C606.434 308.025 609.97 301.407 615.162 296.213C620.355 291.019 626.97 287.482 634.172 286.049C641.374 284.616 648.839 285.351 655.624 288.162C662.408 290.973 668.206 295.734 672.286 301.841C676.366 307.949 678.543 315.13 678.543 322.475C678.532 332.322 674.617 341.763 667.657 348.725C660.696 355.688 651.259 359.605 641.415 359.616ZM641.415 286.686C634.339 286.686 627.422 288.785 621.538 292.717C615.655 296.65 611.069 302.24 608.361 308.779C605.653 315.319 604.945 322.515 606.325 329.458C607.706 336.4 611.113 342.777 616.117 347.783C621.12 352.788 627.495 356.197 634.436 357.578C641.376 358.959 648.569 358.25 655.107 355.541C661.645 352.832 667.232 348.245 671.164 342.359C675.095 336.474 677.193 329.554 677.193 322.475C677.183 312.987 673.41 303.89 666.702 297.18C659.995 290.47 650.901 286.696 641.415 286.686Z" fill="#5179F9"/>
</g>
<defs>
<clipPath id="clip0_21_140">
<rect width="769" height="442" fill="white"/>
</clipPath>
</defs>
</svg>
