<svg width="100%" height="100%" viewBox="0 0 128 130" fill="none" xmlns="http://www.w3.org/2000/svg">
<g filter="url(#filter0_dd_6_48)">
<path d="M48.8074 8.49023L35.5173 26.5621L26.5116 6.01658L48.8074 8.49023ZM49.3051 117.527C50.3422 117.802 50.9601 118.865 50.6852 119.903C50.4104 120.94 49.3468 121.558 48.3096 121.283L49.3051 117.527ZM33.8349 17.1493C18.3717 26.9873 8.11966 44.2708 8.11966 63.9475H4.23423C4.23423 42.8871 15.2124 24.3922 31.7492 13.8711L33.8349 17.1493ZM8.11966 63.9475C8.11966 89.6329 25.5934 111.242 49.3051 117.527L48.3096 121.283C22.9369 114.558 4.23423 91.4391 4.23423 63.9475H8.11966Z" fill="currentColor"/>
</g>
<g filter="url(#filter1_dd_6_48)">
<path d="M79.2192 6.61236C78.182 6.33747 77.1185 6.95538 76.8436 7.9925C76.5687 9.02962 77.1866 10.0932 78.2237 10.3681L79.2192 6.61236ZM78.7214 119.405L101.017 121.878L92.0116 101.333L78.7214 119.405ZM78.2237 10.3681C101.935 16.6529 119.409 38.2621 119.409 63.9475H123.295C123.295 36.4559 104.592 13.3374 79.2192 6.61236L78.2237 10.3681ZM119.409 63.9475C119.409 83.6242 109.157 100.908 93.694 110.746L95.7796 114.024C112.316 103.503 123.295 85.0079 123.295 63.9475H119.409Z" fill="currentColor"/>
</g>
<g filter="url(#filter2_dd_6_48)">
<path fill-rule="evenodd" clip-rule="evenodd" d="M63.5317 101.602C84.8509 101.602 102.133 84.3199 102.133 63.0007C102.133 41.6815 84.8509 24.3989 63.5317 24.3989C42.2125 24.3989 24.9299 41.6815 24.9299 63.0007C24.9299 84.3199 42.2125 101.602 63.5317 101.602ZM71.4461 76.3548C70.6261 76.4944 69.7799 76.5642 68.9075 76.5642C67.6861 76.5642 66.5782 76.4159 65.5837 76.1192C64.5892 75.8226 63.7342 75.3515 63.0189 74.706C62.3035 74.043 61.7539 73.1619 61.3701 72.0627C61.033 71.0821 60.8439 69.9131 60.8029 68.5557H69.5356V64.6823H60.7943V61.3586H69.5356V57.4852H60.8438C60.9208 56.4364 61.0875 55.5029 61.3439 54.6848C61.7103 53.5158 62.2425 52.5649 62.9404 51.8321C63.6557 51.0819 64.5281 50.5323 65.5575 50.1833C66.5869 49.8169 67.7472 49.6337 69.0383 49.6337C69.8584 49.6337 70.6871 49.7123 71.5246 49.8693C72.3795 50.0263 73.1472 50.2357 73.8277 50.4974L74.7699 44.3471C73.7579 44.1028 72.7372 43.9109 71.7078 43.7713C70.6959 43.6143 69.6752 43.5358 68.6458 43.5358C66.3078 43.5358 64.1792 43.8673 62.2599 44.5303C60.3407 45.1759 58.6832 46.1442 57.2874 47.4353C55.8915 48.7265 54.8098 50.3317 54.0421 52.2509C53.4393 53.7929 53.0787 55.5377 52.9602 57.4852H48.4937V61.3586H52.9167V64.6823H48.4937V68.5557H52.9238C52.9786 70.7599 53.3514 72.7053 54.0421 74.3919C54.7923 76.2065 55.8392 77.7331 57.1827 78.9719C58.5436 80.1933 60.1488 81.1093 61.9982 81.7199C63.8477 82.3306 65.8716 82.6359 68.07 82.6359C69.239 82.6359 70.3905 82.5661 71.5246 82.4266C72.6587 82.287 73.7405 82.0951 74.7699 81.8508L73.8277 75.7267C73.0775 76.0058 72.2836 76.2152 71.4461 76.3548Z" fill="currentColor"/>
</g>
<defs>
<filter id="filter0_dd_6_48" x="0.234253" y="0.0166016" width="54.5164" height="129.331" filterUnits="userSpaceOnUse" color-interpolation-filters="sRGB">
<feFlood flood-opacity="0" result="BackgroundImageFix"/>
<feColorMatrix in="SourceAlpha" type="matrix" values="0 0 0 0 0 0 0 0 0 0 0 0 0 0 0 0 0 0 127 0" result="hardAlpha"/>
<feOffset dy="-2"/>
<feGaussianBlur stdDeviation="2"/>
<feComposite in2="hardAlpha" operator="out"/>
<feColorMatrix type="matrix" values="0 0 0 0 0.992157 0 0 0 0 0.639216 0 0 0 0 0.227451 0 0 0 0.3 0"/>
<feBlend mode="normal" in2="BackgroundImageFix" result="effect1_dropShadow_6_48"/>
<feColorMatrix in="SourceAlpha" type="matrix" values="0 0 0 0 0 0 0 0 0 0 0 0 0 0 0 0 0 0 127 0" result="hardAlpha"/>
<feOffset dy="4"/>
<feGaussianBlur stdDeviation="2"/>
<feComposite in2="hardAlpha" operator="out"/>
<feColorMatrix type="matrix" values="0 0 0 0 0 0 0 0 0 0 0 0 0 0 0 0 0 0 0.25 0"/>
<feBlend mode="normal" in2="effect1_dropShadow_6_48" result="effect2_dropShadow_6_48"/>
<feBlend mode="normal" in="SourceGraphic" in2="effect2_dropShadow_6_48" result="shape"/>
</filter>
<filter id="filter1_dd_6_48" x="72.7782" y="0.546997" width="54.5164" height="129.331" filterUnits="userSpaceOnUse" color-interpolation-filters="sRGB">
<feFlood flood-opacity="0" result="BackgroundImageFix"/>
<feColorMatrix in="SourceAlpha" type="matrix" values="0 0 0 0 0 0 0 0 0 0 0 0 0 0 0 0 0 0 127 0" result="hardAlpha"/>
<feOffset dy="-2"/>
<feGaussianBlur stdDeviation="2"/>
<feComposite in2="hardAlpha" operator="out"/>
<feColorMatrix type="matrix" values="0 0 0 0 0.992157 0 0 0 0 0.639216 0 0 0 0 0.227451 0 0 0 0.3 0"/>
<feBlend mode="normal" in2="BackgroundImageFix" result="effect1_dropShadow_6_48"/>
<feColorMatrix in="SourceAlpha" type="matrix" values="0 0 0 0 0 0 0 0 0 0 0 0 0 0 0 0 0 0 127 0" result="hardAlpha"/>
<feOffset dy="4"/>
<feGaussianBlur stdDeviation="2"/>
<feComposite in2="hardAlpha" operator="out"/>
<feColorMatrix type="matrix" values="0 0 0 0 0 0 0 0 0 0 0 0 0 0 0 0 0 0 0.25 0"/>
<feBlend mode="normal" in2="effect1_dropShadow_6_48" result="effect2_dropShadow_6_48"/>
<feBlend mode="normal" in="SourceGraphic" in2="effect2_dropShadow_6_48" result="shape"/>
</filter>
<filter id="filter2_dd_6_48" x="19.9299" y="17.3989" width="87.2036" height="90.77" filterUnits="userSpaceOnUse" color-interpolation-filters="sRGB">
<feFlood flood-opacity="0" result="BackgroundImageFix"/>
<feColorMatrix in="SourceAlpha" type="matrix" values="0 0 0 0 0 0 0 0 0 0 0 0 0 0 0 0 0 0 127 0" result="hardAlpha"/>
<feOffset dy="-2"/>
<feGaussianBlur stdDeviation="2.5"/>
<feComposite in2="hardAlpha" operator="out"/>
<feColorMatrix type="matrix" values="0 0 0 0 1 0 0 0 0 0.458824 0 0 0 0 0.286275 0 0 0 0.3 0"/>
<feBlend mode="normal" in2="BackgroundImageFix" result="effect1_dropShadow_6_48"/>
<feColorMatrix in="SourceAlpha" type="matrix" values="0 0 0 0 0 0 0 0 0 0 0 0 0 0 0 0 0 0 127 0" result="hardAlpha"/>
<feOffset dy="3.28319"/>
<feGaussianBlur stdDeviation="1.6416"/>
<feComposite in2="hardAlpha" operator="out"/>
<feColorMatrix type="matrix" values="0 0 0 0 0 0 0 0 0 0 0 0 0 0 0 0 0 0 0.25 0"/>
<feBlend mode="normal" in2="effect1_dropShadow_6_48" result="effect2_dropShadow_6_48"/>
<feBlend mode="normal" in="SourceGraphic" in2="effect2_dropShadow_6_48" result="shape"/>
</filter>
</defs>
</svg>
