<svg width="100%" height="100%" viewBox="0 0 140 143" fill="none" xmlns="http://www.w3.org/2000/svg">
<g filter="url(#filter0_dd_23_517)">
<path d="M17.4443 72.8809C17.4443 93.6829 29.5333 111.66 47.0633 120.179L21.9943 51.4929C19.0783 58.0289 17.4443 65.2619 17.4443 72.8809Z" fill="currentColor"/>
<path d="M105.476 70.2289C105.476 63.7339 103.143 59.2359 101.142 55.7349C98.4784 51.4059 95.9814 47.7399 95.9814 43.4109C95.9814 38.5799 99.6454 34.0829 104.806 34.0829C105.039 34.0829 105.26 34.1119 105.487 34.1249C96.1374 25.5589 83.6804 20.3289 69.9984 20.3289C51.6384 20.3289 35.4854 29.7489 26.0884 44.0169C27.3214 44.0539 28.4834 44.0799 29.4704 44.0799C34.9674 44.0799 43.4764 43.4129 43.4764 43.4129C46.3094 43.2459 46.6434 47.4069 43.8134 47.7419C43.8134 47.7419 40.9664 48.0769 37.7984 48.2429L56.9364 105.168L68.4374 70.6749L60.2494 48.2409C57.4194 48.0749 54.7384 47.7399 54.7384 47.7399C51.9064 47.5739 52.2384 43.2439 55.0704 43.4109C55.0704 43.4109 63.7494 44.0779 68.9134 44.0779C74.4094 44.0779 82.9194 43.4109 82.9194 43.4109C85.7544 43.2439 86.0874 47.4049 83.2564 47.7399C83.2564 47.7399 80.4034 48.0749 77.2414 48.2409L96.2334 104.735L101.475 87.2179C103.747 79.9489 105.476 74.7279 105.476 70.2289Z" fill="currentColor"/>
<path d="M70.9203 77.4778L55.1523 123.297C59.8603 124.681 64.8393 125.438 69.9983 125.438C76.1183 125.438 81.9873 124.38 87.4503 122.459C87.3093 122.234 87.1813 121.995 87.0763 121.735L70.9203 77.4778Z" fill="currentColor"/>
<path d="M116.112 47.6669C116.338 49.3409 116.466 51.1379 116.466 53.0709C116.466 58.4039 115.47 64.3989 112.47 71.8949L96.4175 118.308C112.041 109.197 122.55 92.2699 122.55 72.8819C122.551 63.7449 120.217 55.1529 116.112 47.6669Z" fill="currentColor"/>
<path d="M69.9983 11.6208C36.2193 11.6208 8.73633 39.1018 8.73633 72.8808C8.73633 106.664 36.2193 134.144 69.9983 134.144C103.776 134.144 131.263 106.664 131.263 72.8808C131.262 39.1018 103.776 11.6208 69.9983 11.6208ZM69.9983 131.336C37.7683 131.336 11.5453 105.113 11.5453 72.8808C11.5453 40.6508 37.7673 14.4298 69.9983 14.4298C102.227 14.4298 128.448 40.6508 128.448 72.8808C128.448 105.113 102.227 131.336 69.9983 131.336Z" fill="currentColor"/>
</g>
<defs>
<filter id="filter0_dd_23_517" x="0.736328" y="0.62085" width="138.527" height="141.523" filterUnits="userSpaceOnUse" color-interpolation-filters="sRGB">
<feFlood flood-opacity="0" result="BackgroundImageFix"/>
<feColorMatrix in="SourceAlpha" type="matrix" values="0 0 0 0 0 0 0 0 0 0 0 0 0 0 0 0 0 0 127 0" result="hardAlpha"/>
<feOffset dy="4"/>
<feGaussianBlur stdDeviation="2"/>
<feComposite in2="hardAlpha" operator="out"/>
<feColorMatrix type="matrix" values="0 0 0 0 0 0 0 0 0 0 0 0 0 0 0 0 0 0 0.25 0"/>
<feBlend mode="normal" in2="BackgroundImageFix" result="effect1_dropShadow_23_517"/>
<feColorMatrix in="SourceAlpha" type="matrix" values="0 0 0 0 0 0 0 0 0 0 0 0 0 0 0 0 0 0 127 0" result="hardAlpha"/>
<feOffset dy="-3"/>
<feGaussianBlur stdDeviation="4"/>
<feComposite in2="hardAlpha" operator="out"/>
<feColorMatrix type="matrix" values="0 0 0 0 0.0117647 0 0 0 0 0.129412 0 0 0 0 0.439216 0 0 0 1 0"/>
<feBlend mode="normal" in2="effect1_dropShadow_23_517" result="effect2_dropShadow_23_517"/>
<feBlend mode="normal" in="SourceGraphic" in2="effect2_dropShadow_23_517" result="shape"/>
</filter>
</defs>
</svg>
