<svg width="auto" height="100%" viewBox="0 0 45 45" fill="none" xmlns="http://www.w3.org/2000/svg">
<path d="M3.54028 19.7538C1.88343 19.7538 0.540283 21.0969 0.540283 22.7538C0.540283 24.4106 1.88343 25.7538 3.54028 25.7538L3.54028 19.7538ZM44.1163 24.8751C45.2878 23.7035 45.2878 21.804 44.1163 20.6325L25.0244 1.54058C23.8528 0.369009 21.9533 0.369009 20.7817 1.54058C19.6102 2.71216 19.6102 4.61165 20.7817 5.78322L37.7523 22.7538L20.7817 39.7243C19.6102 40.8959 19.6102 42.7954 20.7817 43.967C21.9533 45.1386 23.8528 45.1386 25.0244 43.967L44.1163 24.8751ZM3.54028 25.7538L41.9949 25.7538L41.9949 19.7538L3.54028 19.7538L3.54028 25.7538Z" fill="currentColor"/>
</svg>
