<svg width="auto" height="100%" viewBox="0 0 57 64" fill="none" xmlns="http://www.w3.org/2000/svg">
<g filter="url(#filter0_dd_25_1050)">
<path fill-rule="evenodd" clip-rule="evenodd" d="M10.2568 6.70878C10.7817 6.16281 11.412 5.73928 12.1059 5.46625C12.7999 5.19323 13.5416 5.07694 14.282 5.12511C15.0223 5.17327 15.7444 5.38478 16.4003 5.74562C17.0563 6.10646 17.6311 6.6084 18.0868 7.21816L23.4718 14.4244C24.4588 15.7463 24.8068 17.4682 24.4168 19.0932L22.7758 25.9369C22.6909 26.2914 22.6955 26.6627 22.7891 27.0148C22.8826 27.3668 23.062 27.6877 23.3098 27.9463L30.6807 35.6244C30.9293 35.883 31.2378 36.0702 31.5764 36.1677C31.915 36.2651 32.272 36.2696 32.6128 36.1807L39.1797 34.4713C39.9496 34.2708 40.7531 34.2552 41.5296 34.4257C42.3061 34.5963 43.0352 34.9485 43.6618 35.4557L50.5798 41.0619C53.0667 43.0775 53.2948 46.9057 51.0687 49.2213L47.9667 52.4525C45.7467 54.765 42.4287 55.7807 39.3358 54.6463C31.4193 51.7448 24.2316 47.0239 18.3058 40.8338C12.3636 34.662 7.83158 27.1758 5.04575 18.9307C3.95975 15.7119 4.93475 12.2525 7.15475 9.94003L10.2568 6.70878Z" fill="currentColor"/>
</g>
<defs>
<filter id="filter0_dd_25_1050" x="0.600342" y="0.114502" width="56.0015" height="62.9978" filterUnits="userSpaceOnUse" color-interpolation-filters="sRGB">
<feFlood flood-opacity="0" result="BackgroundImageFix"/>
<feColorMatrix in="SourceAlpha" type="matrix" values="0 0 0 0 0 0 0 0 0 0 0 0 0 0 0 0 0 0 127 0" result="hardAlpha"/>
<feOffset dy="-2"/>
<feGaussianBlur stdDeviation="1.5"/>
<feComposite in2="hardAlpha" operator="out"/>
<feColorMatrix type="matrix" values="0 0 0 0 0.992157 0 0 0 0 0.639216 0 0 0 0 0.227451 0 0 0 0.35 0"/>
<feBlend mode="normal" in2="BackgroundImageFix" result="effect1_dropShadow_25_1050"/>
<feColorMatrix in="SourceAlpha" type="matrix" values="0 0 0 0 0 0 0 0 0 0 0 0 0 0 0 0 0 0 127 0" result="hardAlpha"/>
<feOffset dy="4"/>
<feGaussianBlur stdDeviation="2"/>
<feComposite in2="hardAlpha" operator="out"/>
<feColorMatrix type="matrix" values="0 0 0 0 0 0 0 0 0 0 0 0 0 0 0 0 0 0 0.25 0"/>
<feBlend mode="normal" in2="effect1_dropShadow_25_1050" result="effect2_dropShadow_25_1050"/>
<feBlend mode="normal" in="SourceGraphic" in2="effect2_dropShadow_25_1050" result="shape"/>
</filter>
</defs>
</svg>
