<svg width="auto" height="100%" viewBox="0 0 54 75" fill="none" xmlns="http://www.w3.org/2000/svg">
<g filter="url(#filter0_dd_25_1052)">
<path d="M27.1003 66.1562C27.1003 66.1562 49.6003 44.4784 49.6003 28.0312C49.6003 21.9644 47.2298 16.1461 43.0102 11.8562C38.7907 7.56629 33.0677 5.15625 27.1003 5.15625C21.133 5.15625 15.41 7.56629 11.1904 11.8562C6.97087 16.1461 4.60034 21.9644 4.60034 28.0312C4.60034 44.4784 27.1003 66.1562 27.1003 66.1562ZM27.1003 39.4688C24.1167 39.4688 21.2552 38.2637 19.1454 36.1188C17.0356 33.9738 15.8503 31.0647 15.8503 28.0312C15.8503 24.9978 17.0356 22.0887 19.1454 19.9437C21.2552 17.7988 24.1167 16.5938 27.1003 16.5938C30.084 16.5938 32.9455 17.7988 35.0553 19.9437C37.1651 22.0887 38.3503 24.9978 38.3503 28.0312C38.3503 31.0647 37.1651 33.9738 35.0553 36.1188C32.9455 38.2637 30.084 39.4688 27.1003 39.4688Z" fill="currentColor"/>
</g>
<defs>
<filter id="filter0_dd_25_1052" x="0.600342" y="0.15625" width="53" height="74" filterUnits="userSpaceOnUse" color-interpolation-filters="sRGB">
<feFlood flood-opacity="0" result="BackgroundImageFix"/>
<feColorMatrix in="SourceAlpha" type="matrix" values="0 0 0 0 0 0 0 0 0 0 0 0 0 0 0 0 0 0 127 0" result="hardAlpha"/>
<feOffset dy="-2"/>
<feGaussianBlur stdDeviation="1.5"/>
<feComposite in2="hardAlpha" operator="out"/>
<feColorMatrix type="matrix" values="0 0 0 0 0.992157 0 0 0 0 0.639216 0 0 0 0 0.227451 0 0 0 0.35 0"/>
<feBlend mode="normal" in2="BackgroundImageFix" result="effect1_dropShadow_25_1052"/>
<feColorMatrix in="SourceAlpha" type="matrix" values="0 0 0 0 0 0 0 0 0 0 0 0 0 0 0 0 0 0 127 0" result="hardAlpha"/>
<feOffset dy="4"/>
<feGaussianBlur stdDeviation="2"/>
<feComposite in2="hardAlpha" operator="out"/>
<feColorMatrix type="matrix" values="0 0 0 0 0 0 0 0 0 0 0 0 0 0 0 0 0 0 0.25 0"/>
<feBlend mode="normal" in2="effect1_dropShadow_25_1052" result="effect2_dropShadow_25_1052"/>
<feBlend mode="normal" in="SourceGraphic" in2="effect2_dropShadow_25_1052" result="shape"/>
</filter>
</defs>
</svg>
